<?xml version="1.0" encoding="UTF-8"?>
<svg xmlns="http://www.w3.org/2000/svg" width="2500" height="2500" viewBox="0 0 2500 2500" fill="none">
  <path d="M1257.47 857.639C1273.98 858.411 1289.74 864.715 1302.23 875.537C1319.25 891.646 1323.71 918.506 1315.65 939.997C1284.34 1004.44 1209.88 1047.49 1159 1061.73C1128.56 1068.89 1090.08 1068.89 1062.33 1058.15C1048.89 1066.21 1037.56 1092.24 1021.15 1081.42C997.401 1062.87 1017.96 1033.85 1004.25 1013.25C1001.42 1009.01 994.301 1008.7 990.722 1001.76C971.915 960.58 995.196 921.191 1021.15 889.869C1064.42 841.595 1188.55 787.81 1257.47 857.639ZM1113.35 889.856C1089.18 894.33 1061.87 904.849 1047.11 922.086C1032.34 939.309 1022.95 956.105 1031.9 974.004C1063.24 950.736 1078.45 918.506 1113.36 898.818C1113.35 895.225 1118.72 892.54 1113.35 889.856ZM1259.27 898.818C1197.5 893.435 1150.95 939.997 1107.09 984.743C1104.4 991.902 1088.29 999.956 1100.82 1008.01C1159.91 1013.38 1216.3 996.389 1259.27 956.987C1271.82 945.353 1280.74 930.14 1274.5 914.018C1271.82 907.767 1265.5 901.503 1259.27 898.818ZM1794.55 1165.57C1823.2 1235.4 1847.36 1345.48 1794.55 1412.63C1780.23 1428.74 1755.17 1443.59 1739.06 1431.42C1679.97 1383.99 1654.93 1315.95 1618.22 1255.07C1612.86 1252.39 1612.86 1259.56 1610.17 1262.24C1596.75 1324.01 1621.8 1404.57 1579.74 1452.9C1563.64 1455.58 1548.56 1447.3 1543.04 1431.42C1522.44 1367.87 1543.91 1301.62 1549.28 1238.07C1561.82 1205.84 1567.19 1168.25 1594.94 1144.08C1639.7 1161.97 1661.18 1212.12 1687.12 1248.82C1705.94 1276.56 1721.14 1307.9 1742.62 1332.95C1761.41 1324.9 1752.16 1300.34 1751.58 1285.51C1744.39 1227.33 1728.29 1173.62 1713.06 1118.12C1712.19 1103.8 1704.14 1079.63 1719.32 1070.68C1759.66 1088.59 1776.64 1130.65 1794.55 1165.57ZM1524.22 1144.08C1524.22 1157.51 1513.48 1174.3 1504.51 1176.31C1418.58 1189.73 1322.8 1181.68 1242.24 1208.52C1239.56 1218.37 1251.19 1220.16 1257.46 1222.84C1326.37 1233.58 1398.89 1236.27 1466.04 1253.28C1501.54 1262.3 1514.39 1304.32 1517.07 1339.22C1518.72 1366.74 1508.14 1400.09 1481.26 1418.89C1415.04 1460.97 1313.89 1459.16 1246.73 1420.7C1221.06 1406.3 1196.6 1383.11 1194.81 1354.46C1194.97 1331.71 1204.67 1313.8 1220.78 1305.23C1285.24 1279.26 1364.9 1293.6 1420.41 1326.7C1423.96 1344.61 1404.59 1343.64 1395.31 1349.98C1333.54 1385.79 1287 1309.73 1229.72 1337.44C1221.66 1342.81 1215.84 1357.79 1225.24 1362.51C1295.95 1393.85 1374.73 1371.46 1444.55 1351.77C1452.6 1349.09 1462.46 1341.03 1463.34 1332.98C1460.66 1304.33 1428.44 1298.08 1407.84 1290.02C1346.98 1274.81 1279.84 1274.81 1214.49 1268.55C1201.96 1265.86 1185.99 1257.13 1182.27 1247.07C1175.11 1225.59 1175.11 1196.05 1191.22 1178.15C1274.46 1104.74 1400.67 1111.02 1506.3 1130.7C1513.47 1133.34 1521.52 1136.02 1524.22 1144.08ZM1133.05 1178.1C1141.11 1264.02 1145.58 1343.71 1143.79 1434.11C1142 1445.73 1128.58 1448.42 1119.63 1452.9C1105.31 1455.58 1086.8 1452.54 1081.13 1444.84C1060.55 1411.71 1067.71 1366.97 1065.92 1326.69C1068.6 1263.15 1067.71 1194.22 1085.62 1135.13C1089.05 1126.54 1099.05 1119.02 1107.1 1124.38C1128.58 1135.13 1132.16 1156.62 1133.05 1178.1ZM2127.57 1165.57C2131.88 1172.8 2136.38 1183.98 2127.57 1188.83C2087.29 1206.73 2032.7 1198.68 1986.14 1204.05C1973.61 1214.79 1963.75 1232.69 1968.21 1248.81C1972.71 1251.49 1976.72 1255.58 1981.66 1255.06C2010.29 1256.86 2053.27 1241.63 2072.09 1268.48C2076.68 1276.47 2071.47 1306.3 2058.66 1306.98C2023.74 1311.48 1966.31 1302.59 1949.43 1311.48C1927.96 1325.8 1929.73 1353.54 1921.68 1375.94C1936.9 1385.78 1952.84 1375.7 1970.9 1373.24C2004.05 1367.87 2040.75 1358.03 2073.85 1365.18C2080.12 1376.82 2089.08 1389.36 2082.8 1403.68C2026.37 1448.44 1953.58 1494.31 1876.04 1461.86C1846.93 1448.81 1833.96 1404.57 1843.82 1367C1850.07 1340.14 1877.81 1314.19 1860.82 1285.54C1858.14 1273 1865.31 1262.27 1876.05 1259.58C1905.58 1259.58 1899.31 1222.88 1914.53 1205.86C1897.53 1187.07 1854.57 1187.97 1859.05 1150.37C1879.64 1139.63 1904.71 1143.21 1927.96 1139.63C1980.77 1128.88 2039.85 1122.61 2093.59 1128.88C2104.29 1131.03 2118.62 1152.14 2127.57 1165.57ZM849.286 961.475C931.891 1029 1039.06 1144.09 1025.64 1276.56C1009.51 1381.31 898.52 1460.07 804.528 1485.14C713.221 1511.99 598.646 1509.3 505.536 1487.83C499.271 1504.84 493.007 1525.41 473.319 1532.59C460.79 1537.06 444.669 1534.38 434.825 1526.32C407.082 1500.36 429.455 1450.23 389.171 1434.13C310.393 1401.01 225.35 1335.65 185.079 1255.1C179.709 1238.99 185.974 1222.88 195.818 1210.35C257.593 1161.12 335.463 1141.43 413.347 1126.2C417.821 1127.99 416.031 1121.73 419.611 1119.94C424.086 1066.23 425.875 1011.62 442.879 963.278C446.757 956.494 456.302 954.328 462.58 958.803C511.813 996.389 488.532 1067.13 510.023 1118.14C604.015 1122.61 698.007 1127.09 772.298 1179.91C797.368 1200.49 803.477 1239.81 795.566 1262.27C787.667 1284.69 761.559 1300.76 737.383 1302.53C721.262 1302.53 690.835 1304.1 692.625 1291.8C694.414 1279.49 747.383 1259.35 731.119 1242.56C707.734 1218.42 590.734 1204.06 518.22 1195.11C509.271 1193.32 501.061 1196.01 501.061 1205.85C499.271 1273.88 493.902 1349.06 505.536 1414.43C506.431 1418.92 511.8 1424.29 516.288 1425.16C644.286 1445.75 779.457 1434.11 879.713 1360.71C926.262 1323.14 941.488 1270.28 933.421 1212.12C893.137 1050.1 723.96 952.513 585.209 889.856C450.051 830.778 300.549 800.338 140.32 808.406C114.809 810.273 74.3818 819.08 74.0835 828.107C73.7852 837.134 119.88 834.293 114.355 851.374C108.842 868.443 61.9957 858.313 48.118 854.059C34.2404 849.805 35.5893 829.884 39.1689 817.355C74.0835 755.593 171.512 750.599 215.519 748.433C458.987 742.156 694.427 834.877 849.286 961.475ZM410.662 1201.38C348.887 1202.27 283.545 1208.54 226.258 1230.01C214.624 1234.49 200.292 1247.02 209.241 1262.24C232.509 1293.57 265.79 1319.28 296.969 1337.43C328.148 1355.55 369.483 1378.61 407.082 1383.99C416.031 1325.8 416.031 1268.51 415.136 1208.54C411.544 1206.75 415.123 1203.17 410.662 1201.38ZM2260.93 1119.91C2258.24 1197.78 2185.72 1246.14 2185.72 1324.01C2188.4 1326.69 2190.22 1330.27 2193.77 1328.51C2251.98 1264.94 2309.25 1174.53 2394.3 1147.68C2416.71 1145.89 2436.95 1165.36 2445.33 1179.91C2474.88 1238.99 2467.74 1322.24 2426.55 1375.95C2384.05 1428.67 2310.16 1481.58 2226.05 1472.61C2191.15 1558.55 2166.94 1648.96 2153.51 1742.96C2146.35 1761.75 2129.36 1744.74 2118.62 1741.17C2046.12 1683.88 2105.65 1532.22 2110.57 1512.87C2115.49 1493.57 2134.89 1448.05 2149.08 1409.93C2115.06 1349.08 2136.54 1275.65 2164.28 1219.26C2185.76 1181.66 2215.33 1144.06 2250.23 1115.43C2254.66 1115.44 2258.24 1116.33 2260.93 1119.91ZM2405.07 1216.59C2394.34 1214.8 2389.85 1229.13 2380.91 1231.82C2339.75 1278.36 2298.55 1324.91 2277.96 1380.41C2305.73 1383.99 2328.98 1366.09 2353.17 1356.25C2394.34 1330.28 2420.3 1287.34 2417.62 1238.09C2415.81 1230.01 2408.65 1223.75 2405.07 1216.59Z" fill="white"></path>
</svg>
