<?xml version="1.0" encoding="UTF-8"?>
<svg xmlns="http://www.w3.org/2000/svg" width="2500" height="2500" viewBox="0 0 2500 2500" fill="none">
  <path d="M78.4176 942.28H616.094L593.287 1118.17H56.5482L78.4176 942.28ZM46.8631 1182.84H585.167L568.606 1325.93H232.132L223.381 1394.35H560.483L539.551 1557.75H0L46.8631 1182.84ZM624.842 1118.17C624.842 1118.17 628.591 1058.19 643.587 1026.95C657.646 997.579 676.391 976.334 707.949 958.526C726.694 948.529 760.123 942.28 760.123 942.28H1728.63C1728.63 942.28 1769.24 942.905 1786.74 950.091C1805.48 957.901 1832.66 969.461 1847.04 1004.45C1861.09 1037.88 1858.29 1048.82 1858.29 1082.24C1858.29 1115.05 1857.35 1118.17 1857.35 1118.17H624.842ZM616.094 1184.41H1111.6C1111.6 1184.41 1155.65 1184.41 1175.96 1196.59C1197.2 1210.65 1206.89 1227.83 1213.13 1255.01C1219.07 1282.19 1202.51 1419.35 1192.83 1452.78C1182.2 1485.58 1169.71 1516.51 1118.47 1542.13C1072.54 1565.56 1002.87 1557.75 1002.87 1557.75H574.854L600.164 1394.35H1001L1009.12 1325H732.63C732.63 1325 687.645 1331.24 645.468 1294.69C619.849 1272.82 617.034 1239.4 615.472 1224.71C613.595 1216.27 616.094 1184.41 616.094 1184.41ZM1260.62 1184.41H1845.16C1845.16 1184.41 1839.85 1251.89 1823.91 1275.95C1807.98 1300.94 1793.92 1314.37 1767.36 1320.31C1740.18 1326.55 1699.57 1326.55 1699.57 1326.55H1445.26L1418.7 1557.75H1214.69L1260.62 1184.41ZM1884.84 1119.74H2492.18C2492.18 1119.74 2503.74 1066.62 2497.49 1033.19C2491.24 999.766 2476.25 977.271 2451.57 961.025C2419.08 938.219 2359.72 942.28 2360.65 942.28H1909.52L1884.84 1119.74ZM1877.03 1184.41H2078.22L2032.3 1557.75H1832.66L1877.03 1184.41ZM2281.3 1185.97H2480.62L2434.7 1557.75H2236.31L2281.3 1185.97Z" fill="white"></path>
</svg>
