<?xml version="1.0" encoding="UTF-8"?>
<svg xmlns="http://www.w3.org/2000/svg" width="2500" height="2500" viewBox="0 0 2500 2500" fill="none">
  <path fill-rule="evenodd" clip-rule="evenodd" d="M224.857 1912.08C232.924 1897.28 242.327 1883.86 251.731 1870.43L226.193 1874.47C193.95 1925.52 141.552 1979.26 77.0537 1979.26C54.214 1979.26 39.4414 1968.5 39.4414 1953.73C39.4414 1944.32 46.1597 1936.24 54.214 1936.24C62.2812 1936.24 68.9995 1940.29 68.9995 1949.69C68.9995 1959.1 62.2812 1963.12 56.9117 1963.12C54.214 1963.12 51.5292 1963.12 51.5292 1965.8C51.5292 1972.52 66.3148 1975.23 77.0537 1975.23C134.834 1975.23 172.446 1913.42 200.669 1877.15C169.762 1883.87 142.888 1897.3 124.082 1914.77L121.397 1913.42C134.834 1897.28 175.144 1875.8 203.353 1873.12C226.193 1839.53 275.906 1781.75 316.216 1756.21V1754.86C298.746 1765.6 285.309 1772.34 269.201 1772.34C242.327 1772.34 232.924 1745.47 199.333 1745.47C165.754 1745.47 128.129 1776.38 128.129 1809.97C128.129 1830.11 144.25 1839.53 157.687 1839.53C185.909 1839.53 224.87 1807.29 231.588 1781.75H234.286C227.568 1812.65 196.661 1843.56 161.733 1843.56C138.894 1843.56 124.108 1831.45 124.108 1807.29C124.108 1771.01 179.204 1733.4 212.782 1733.4C242.34 1733.4 259.798 1762.93 286.671 1762.93C304.141 1762.93 321.612 1749.5 336.384 1738.77L337.733 1742.8C290.718 1776.39 259.811 1823.41 228.904 1870.45L254.428 1866.4C267.865 1847.61 285.322 1827.44 293.389 1820.73L294.738 1822.08C282.65 1832.85 270.563 1850.31 261.147 1866.41L286.671 1862.38C306.826 1835.53 391.48 1737.44 426.407 1737.44C433.126 1737.44 437.159 1741.48 437.159 1746.85C437.159 1788.49 351.17 1855.68 309.524 1862.38C294.738 1882.55 255.777 1930.9 255.777 1956.44C255.777 1969.89 267.865 1975.26 278.617 1975.26C328.33 1975.26 378.043 1914.79 378.043 1890.6C378.043 1879.86 372.674 1873.15 363.258 1873.15C341.767 1873.15 316.242 1898.66 304.141 1913.44H300.108C314.893 1895.96 339.069 1869.11 363.258 1869.11C376.694 1869.11 382.064 1878.52 382.064 1891.94C382.064 1932.24 318.914 1979.28 282.637 1979.28C257.113 1979.28 247.71 1965.83 247.71 1944.35C247.71 1918.81 270.55 1886.57 283.986 1866.4L259.798 1870.45C251.743 1881.19 242.327 1895.96 235.609 1912.09H224.857V1912.08ZM426.394 1741.45C403.555 1741.45 324.283 1843.56 312.183 1858.33C356.526 1848.93 433.1 1777.73 433.1 1745.48C433.113 1742.79 430.428 1741.45 426.394 1741.45ZM524.472 1917.45C519.089 1921.48 508.35 1928.19 498.947 1928.19C490.893 1928.19 485.511 1925.5 481.477 1921.47C449.234 1961.77 422.361 1979.25 395.487 1979.25C386.084 1979.25 375.332 1971.2 375.332 1959.08C375.332 1926.84 437.133 1867.71 473.41 1867.71C480.128 1867.71 485.498 1870.42 486.846 1875.79C488.195 1874.44 489.544 1874.44 490.893 1874.44C496.262 1874.44 497.611 1878.48 497.611 1883.85C497.611 1895.93 489.544 1912.07 482.826 1918.77C488.208 1922.81 493.578 1924.14 498.947 1924.14C504.317 1924.14 515.069 1920.11 523.136 1913.4L524.472 1917.45ZM482.826 1878.49C482.826 1875.8 480.141 1871.77 474.759 1871.77C459.986 1871.77 433.113 1904.01 396.836 1945.66C388.782 1955.06 387.433 1960.43 387.433 1965.8C387.433 1969.85 390.131 1975.23 399.521 1975.23C422.374 1975.23 454.617 1949.69 477.456 1918.79C474.702 1913.39 473.317 1907.39 473.423 1901.33C473.423 1891.91 477.456 1882.51 482.826 1878.49Z" fill="white"></path>
  <path fill-rule="evenodd" clip-rule="evenodd" d="M626.595 1804.6H648.086L605.091 1850.27H626.595L623.898 1854.3H602.407L519.102 1944.32C504.329 1960.43 497.611 1967.15 497.611 1971.2C497.611 1973.88 501.645 1975.23 505.678 1975.23C515.081 1975.23 535.236 1965.8 590.319 1917.45L593.004 1920.14C545.988 1961.78 519.102 1979.26 504.329 1979.26C496.262 1979.26 492.229 1973.89 492.229 1965.81C492.229 1956.41 497.611 1944.34 516.417 1922.83L579.567 1854.31H558.076L560.761 1850.28H583.601L626.595 1804.6Z" fill="white"></path>
  <path fill-rule="evenodd" clip-rule="evenodd" d="M696.449 1922.82C665.555 1949.69 625.232 1979.26 588.956 1979.26C578.217 1979.26 567.465 1975.23 567.465 1963.13C567.465 1926.85 633.299 1870.45 669.576 1870.45C677.643 1870.45 684.361 1877.17 684.361 1885.22C684.361 1916.13 625.232 1933.58 601.057 1933.58C580.902 1955.09 578.217 1963.14 578.217 1967.18C578.217 1973.92 584.935 1975.26 591.653 1975.26C621.212 1975.26 656.139 1951.07 696.449 1918.81V1922.82ZM669.576 1874.46C656.139 1874.46 638.669 1890.56 603.741 1929.52C640.018 1929.52 676.294 1898.62 676.294 1881.16C676.294 1877.14 673.609 1874.46 669.576 1874.46Z" fill="white"></path>
  <path fill-rule="evenodd" clip-rule="evenodd" d="M787.821 1926.84C736.759 1972.51 711.235 1979.25 696.462 1979.25C683.026 1979.25 677.656 1971.2 677.656 1959.08C677.656 1918.79 846.938 1738.75 881.878 1738.75C888.597 1738.75 893.979 1742.79 893.979 1750.84C893.979 1789.8 795.902 1852.95 744.84 1886.54C744.84 1886.54 685.723 1959.1 685.723 1967.15C685.723 1972.52 689.757 1975.23 693.778 1975.23C712.597 1975.23 738.121 1964.47 777.082 1930.87L787.821 1926.84ZM883.214 1742.79C869.777 1742.79 822.749 1787.12 751.545 1877.14H752.894C817.38 1831.45 889.932 1784.43 889.932 1750.84C889.932 1745.47 887.235 1742.79 883.214 1742.79ZM1110.26 1874.46C1088.76 1894.6 1057.86 1929.53 1033.68 1955.06C1028.31 1961.78 1025.61 1965.8 1025.61 1968.49C1025.61 1973.88 1029.64 1975.23 1033.68 1975.23C1053.83 1975.23 1104.88 1934.91 1121 1917.45L1125.04 1920.14C1107.56 1937.62 1057.86 1979.26 1032.34 1979.26C1022.94 1979.26 1017.55 1972.52 1017.55 1965.81C1017.55 1960.45 1018.9 1956.41 1021.59 1952.39H1020.24C1001.43 1969.87 983.963 1979.26 970.527 1979.26C957.09 1979.26 949.023 1971.21 949.023 1957.76C949.023 1916.11 1022.92 1870.45 1049.8 1870.45C1060.55 1870.45 1069.95 1875.82 1069.95 1883.87C1069.95 1886.56 1069.95 1887.91 1068.6 1891.93H1069.95L1087.42 1874.47H1110.26V1874.46ZM1053.84 1874.46C1039.06 1874.46 1026.97 1881.17 970.539 1940.29C957.103 1955.06 957.103 1961.77 957.103 1965.8C957.103 1971.2 961.136 1975.23 970.539 1975.23C1001.43 1975.23 1065.93 1904.03 1065.93 1886.54C1065.93 1878.49 1059.21 1874.46 1053.84 1874.46Z" fill="white"></path>
  <path fill-rule="evenodd" clip-rule="evenodd" d="M1162.67 1874.46H1182.83L1153.27 1905.36L1154.62 1906.71C1170.74 1891.91 1196.27 1871.78 1211.05 1871.78C1223.14 1871.78 1231.21 1879.84 1231.21 1891.93C1231.21 1918.8 1174.77 1959.11 1174.77 1971.21C1174.77 1973.89 1176.12 1975.24 1180.16 1975.24C1190.91 1975.24 1212.4 1959.11 1259.43 1917.46V1921.5C1223.15 1955.09 1193.58 1979.28 1180.16 1979.28C1172.09 1979.28 1166.72 1975.24 1166.72 1964.48C1166.72 1938.97 1223.15 1898.64 1223.15 1885.22C1223.15 1879.85 1219.12 1875.82 1212.4 1875.82C1192.26 1875.82 1138.51 1921.48 1092.83 1973.89H1069.99L1162.67 1874.46Z" fill="white"></path>
  <path fill-rule="evenodd" clip-rule="evenodd" d="M1467.66 1775.03H1491.85L1322.55 1951.03C1311.79 1961.77 1309.1 1967.14 1309.1 1969.85C1309.1 1973.88 1311.79 1975.22 1318.53 1975.22C1337.33 1975.22 1361.51 1959.08 1407.19 1917.44L1408.54 1920.12C1360.18 1964.45 1340.02 1979.25 1315.86 1979.25C1310.46 1979.25 1301.06 1976.57 1301.06 1967.14C1301.06 1961.77 1301.06 1957.73 1303.75 1953.71C1288.97 1968.49 1271.5 1979.25 1256.73 1979.25C1240.61 1979.25 1236.58 1968.49 1236.58 1957.75C1236.58 1921.47 1298.38 1871.77 1334.65 1871.77C1346.74 1871.77 1356.16 1875.8 1356.16 1885.19C1356.16 1889.23 1354.81 1891.91 1353.47 1895.93L1467.66 1775.03ZM1340.01 1875.8C1323.9 1875.8 1274.18 1917.45 1255.37 1942.99C1245.97 1956.41 1244.62 1960.44 1244.62 1964.47C1244.62 1971.21 1250 1975.23 1258.05 1975.23C1284.94 1975.23 1352.11 1902.68 1352.11 1886.54C1352.12 1879.82 1346.73 1875.8 1340.01 1875.8ZM1665.18 1768.32C1665.18 1813.99 1620.82 1867.72 1575.15 1867.72C1556.33 1867.72 1545.59 1854.3 1545.59 1836.84C1545.59 1785.77 1631.6 1733.38 1710.85 1733.38C1732.36 1733.38 1752.5 1737.42 1763.24 1742.79C1770.48 1739.12 1778.16 1736.41 1786.09 1734.73L1787.44 1737.42C1780.72 1740.1 1774.02 1742.79 1768.65 1744.14C1786.11 1753.54 1799.53 1768.32 1799.53 1788.47C1799.53 1823.39 1757.88 1844.91 1728.35 1850.28C1731.04 1855.65 1732.38 1859.68 1732.38 1865.08C1732.38 1887.91 1681.31 1924.18 1681.31 1955.08C1681.31 1969.87 1694.73 1975.24 1706.85 1975.24C1736.4 1975.24 1790.14 1925.52 1790.14 1895.96C1790.14 1886.56 1782.08 1879.85 1772.68 1879.85C1759.23 1879.85 1743.12 1895.96 1735.07 1905.39L1731.04 1904.04C1740.44 1893.27 1756.55 1875.82 1772.68 1875.82C1783.42 1875.82 1794.16 1882.54 1794.16 1897.3C1794.16 1932.22 1747.14 1979.26 1706.85 1979.26C1685.34 1979.26 1669.23 1964.47 1669.23 1941.65C1669.23 1906.72 1721.62 1875.82 1721.62 1850.28C1715.53 1852.13 1709.19 1853.04 1702.83 1852.96C1690.71 1852.96 1681.32 1844.91 1681.32 1835.51H1679.97C1639.68 1891.93 1588.6 1979.26 1507.99 1979.26C1483.81 1979.26 1467.7 1968.5 1467.7 1952.39C1467.7 1941.65 1477.1 1934.91 1483.81 1934.91C1493.23 1934.91 1499.94 1941.65 1499.94 1951.04C1499.94 1963.13 1482.46 1961.78 1482.46 1964.47C1482.46 1969.86 1494.57 1975.23 1509.33 1975.23C1596.67 1975.23 1662.52 1779.06 1757.88 1745.47C1744.46 1738.75 1722.96 1737.42 1713.55 1737.42C1622.18 1737.42 1549.63 1796.52 1549.63 1834.16C1549.63 1850.27 1557.71 1863.69 1575.16 1863.69C1606.07 1863.69 1661.14 1809.96 1661.14 1768.31H1665.18V1768.32ZM1763.23 1746.82C1741.75 1760.24 1718.9 1779.06 1682.62 1830.11L1683.97 1831.46C1686.65 1828.78 1692.02 1828.78 1697.42 1828.78C1705.47 1828.78 1720.24 1832.82 1726.95 1846.26C1753.82 1839.54 1783.39 1809.98 1783.39 1783.11C1783.39 1764.29 1773.99 1753.53 1763.23 1746.82ZM1721.58 1847.58C1718.9 1836.84 1706.81 1832.81 1696.07 1832.81C1689.32 1832.81 1685.3 1834.16 1685.3 1838.18C1685.3 1842.2 1692.02 1848.92 1704.12 1848.92C1710.84 1848.93 1717.56 1848.93 1721.58 1847.58ZM1924.47 1922.82C1893.56 1949.69 1847.89 1979.26 1812.95 1979.26C1802.21 1979.26 1791.45 1975.23 1791.45 1963.13C1791.45 1926.85 1857.28 1870.45 1893.56 1870.45C1897.47 1870.48 1901.21 1872.04 1903.98 1874.81C1906.75 1877.57 1908.32 1881.31 1908.36 1885.22C1908.36 1916.13 1849.23 1933.58 1825.04 1933.58C1804.9 1955.09 1802.21 1963.14 1802.21 1967.18C1802.21 1973.92 1808.93 1975.26 1815.64 1975.26C1845.2 1975.26 1885.51 1951.07 1924.47 1918.81V1922.82ZM1893.56 1874.46C1880.14 1874.46 1862.65 1890.56 1827.73 1929.53C1864 1929.53 1900.28 1898.62 1900.28 1881.16C1900.28 1877.14 1897.59 1874.46 1893.56 1874.46ZM2155.56 1917.45C2148.84 1921.48 2139.43 1928.19 2128.69 1928.19C2120.63 1928.19 2116.6 1925.5 2111.21 1921.47C2078.99 1961.77 2052.1 1979.25 2026.58 1979.25C2015.84 1979.25 2005.07 1971.2 2005.07 1959.08C2005.07 1926.84 2068.22 1867.71 2103.15 1867.71C2109.9 1867.71 2115.26 1870.42 2117.95 1875.79C2119.3 1874.44 2120.63 1874.44 2121.98 1874.44C2126.02 1874.44 2128.7 1878.48 2128.7 1883.85C2128.7 1895.93 2119.3 1912.07 2113.93 1918.77C2117.96 1922.81 2123.33 1924.14 2128.7 1924.14C2135.42 1924.14 2146.18 1920.11 2152.89 1913.4L2155.56 1917.45ZM2113.92 1878.49C2112.57 1875.8 2109.88 1871.77 2105.84 1871.77C2091.06 1871.77 2064.19 1904.01 2027.91 1945.66C2019.86 1955.06 2017.17 1960.43 2017.17 1965.8C2017.17 1969.85 2021.21 1975.23 2030.6 1975.23C2053.45 1975.23 2085.69 1949.69 2108.55 1918.79C2105.78 1913.39 2104.39 1907.39 2104.5 1901.33C2104.5 1891.91 2108.55 1882.51 2113.92 1878.49Z" fill="white"></path>
  <path fill-rule="evenodd" clip-rule="evenodd" d="M2189.15 1874.46H2211.98L2169 1921.47C2179.74 1913.42 2193.19 1908.05 2210.64 1902.68C2213.36 1887.88 2230.81 1871.77 2238.87 1871.77C2244.24 1871.77 2246.95 1873.12 2246.95 1878.49C2246.95 1890.58 2225.44 1902.68 2214.7 1905.36C2214.7 1914.77 2218.74 1922.82 2226.79 1922.82C2233.51 1922.82 2284.57 1898.63 2287.26 1895.95L2288.61 1898.63C2285.92 1901.34 2232.16 1926.85 2226.79 1926.85C2217.39 1926.85 2210.66 1918.8 2210.66 1906.71C2182.46 1913.43 2162.29 1928.19 2143.47 1949.69L2123.33 1973.88H2101.83L2189.15 1874.46Z" fill="white"></path>
  <path fill-rule="evenodd" clip-rule="evenodd" d="M2355.76 1804.6H2378.59L2335.61 1850.27H2355.78L2353.09 1854.3H2331.59L2248.27 1944.32C2234.85 1960.43 2228.13 1967.15 2228.13 1971.2C2228.13 1973.88 2232.16 1975.23 2234.85 1975.23C2245.58 1975.23 2280.51 1968.49 2335.62 1920.13L2334.27 1922.82C2291.29 1965.8 2249.64 1979.26 2233.5 1979.26C2225.44 1979.26 2221.41 1973.89 2221.41 1965.81C2221.41 1956.41 2228.13 1944.34 2246.95 1922.83L2310.07 1854.31H2287.24L2291.28 1850.28H2312.76L2355.76 1804.6ZM78.4147 1334.34H36.7559V1323.6H267.851L270.549 1408.23H259.797C253.079 1381.36 247.709 1351.81 219.5 1339.71C210.097 1335.68 193.962 1334.34 176.505 1334.34H132.161V1453.91C171.123 1453.91 192.614 1447.19 195.311 1402.86H206.063V1519.75H195.311C191.278 1472.73 176.505 1463.33 132.161 1464.68V1590.95H172.458V1601.71H36.7559V1590.95H78.4147V1334.34ZM275.918 1492.89C275.918 1441.81 320.262 1390.77 372.66 1390.77C423.709 1390.77 469.388 1441.82 469.388 1492.89C469.388 1549.3 434.461 1607.08 372.66 1607.08C310.846 1607.08 275.918 1549.3 275.918 1492.89ZM423.709 1460.64C423.709 1448.53 422.373 1439.14 418.326 1429.74C412.957 1410.92 399.52 1397.49 372.66 1397.49C344.438 1397.49 331.001 1410.92 325.631 1429.74C322.947 1439.14 321.598 1448.53 321.598 1460.64V1527.83C321.598 1539.91 321.598 1551.99 324.283 1562.75C331.001 1584.23 343.089 1599.03 372.647 1599.03C402.205 1599.03 414.293 1584.23 419.662 1562.75C422.36 1551.99 423.696 1539.9 423.696 1527.83V1460.64H423.709ZM708.538 1394.81V1402.86H677.644V1533.2C677.644 1564.1 670.925 1578.86 658.838 1590.95C645.401 1601.71 626.595 1607.08 598.373 1607.08C576.882 1607.08 556.727 1600.37 543.29 1589.63C529.853 1580.2 524.484 1560.07 524.484 1525.13V1402.85H493.577V1394.79H594.352V1402.85H563.458V1515.7C563.458 1558.71 559.424 1596.33 615.856 1596.33C652.132 1596.33 666.918 1573.48 666.918 1539.89V1402.85H637.334V1394.79H708.538V1394.81ZM801.246 1593.66H832.153V1601.71H731.378V1593.66H762.272V1402.86H731.378V1394.81H834.837C868.429 1394.81 908.739 1398.84 908.739 1441.82C908.739 1476.75 872.463 1488.86 842.905 1492.9C891.269 1500.95 902.021 1526.49 902.021 1577.53C902.021 1588.26 903.37 1600.38 932.915 1595.01V1601.73C924.664 1604.37 916.055 1605.73 907.39 1605.76C875.147 1605.76 859.026 1589.65 859.026 1558.75C859.026 1533.21 854.992 1513.05 846.925 1506.33C837.522 1499.62 828.119 1495.6 818.716 1495.6H801.246V1593.66ZM801.246 1487.49H826.77C854.979 1487.49 865.731 1474.07 865.731 1445.84C865.731 1412.25 856.328 1402.86 828.106 1402.86H801.233V1487.49H801.246ZM1063.25 1604.4H1056.52V1521.11H1068.62C1076.68 1561.4 1100.86 1597.68 1145.2 1597.68C1177.45 1597.68 1207 1573.49 1207 1539.9C1207 1500.94 1172.08 1492.89 1141.17 1482.12C1133.1 1479.44 1125.04 1476.75 1115.65 1474.07C1078.03 1461.98 1057.87 1433.77 1057.87 1393.46C1057.87 1350.48 1090.11 1318.22 1134.45 1318.22C1158.63 1318.22 1176.1 1323.59 1194.92 1338.36L1211.04 1322.25H1217.76V1400.18H1204.32C1200.29 1361.22 1174.76 1327.62 1133.12 1327.62C1106.24 1327.62 1080.71 1347.77 1080.71 1375.99C1080.71 1408.23 1103.54 1410.92 1129.07 1417.63C1139.82 1420.35 1147.89 1424.38 1154.59 1425.71C1162.66 1428.4 1173.4 1431.08 1182.82 1435.12C1217.74 1452.57 1229.83 1479.45 1229.83 1517.06C1229.83 1569.47 1196.24 1608.43 1142.49 1608.43C1122.34 1608.43 1096.83 1600.38 1083.38 1586.93L1063.25 1604.4ZM1340.01 1402.86V1491.55C1369.57 1491.55 1385.68 1487.5 1387.05 1453.91H1395.11V1539.91H1387.05C1384.34 1506.32 1373.6 1498.27 1340.01 1499.62V1593.67H1382.99C1423.31 1593.67 1432.72 1570.82 1439.44 1535.89H1447.49L1444.81 1601.73H1268.81V1593.67H1299.71V1402.87H1268.81V1394.82H1440.78L1442.13 1451.24H1434.08C1427.36 1421.68 1415.26 1409.59 1399.15 1405.57C1391.1 1402.89 1383.02 1402.89 1372.28 1402.89H1340.01V1402.86ZM1470.34 1601.71V1593.66H1495.88L1569.77 1390.77H1580.51L1650.38 1593.66H1675.91V1601.71H1577.84V1593.66H1610.08L1591.26 1539.9H1524.08L1505.28 1593.66H1536.19V1601.71H1470.34ZM1526.79 1531.85H1587.23L1559.03 1444.51L1526.79 1531.85ZM1708.16 1604.4H1702.79V1542.59H1710.84C1717.56 1572.14 1735.03 1599.03 1768.62 1599.03C1792.78 1599.03 1814.29 1580.21 1814.29 1556.02C1814.29 1526.49 1788.75 1521.12 1765.92 1513.04C1759.18 1510.36 1752.47 1509.01 1747.1 1506.32C1717.55 1498.27 1704.12 1476.76 1704.12 1447.19C1704.12 1414.95 1728.31 1390.77 1760.54 1390.77C1778.02 1390.77 1791.45 1394.81 1804.9 1405.55L1816.99 1393.46H1822.36V1452.56H1812.95C1808.92 1423.03 1790.1 1397.49 1759.19 1397.49C1739.05 1397.49 1720.23 1412.26 1720.23 1433.77C1720.23 1456.62 1737.71 1459.31 1756.51 1464.68C1764.59 1467.36 1769.96 1468.71 1775.33 1471.39C1782.05 1472.74 1790.1 1475.43 1796.8 1478.11C1822.34 1490.23 1831.73 1510.36 1831.73 1538.58C1831.73 1577.54 1806.22 1607.1 1765.92 1607.1C1751.13 1607.1 1732.33 1600.38 1721.57 1590.96L1708.16 1604.4ZM1873.42 1492.89C1873.42 1441.81 1917.75 1390.77 1970.13 1390.77C2021.21 1390.77 2065.53 1441.82 2065.53 1492.89C2065.53 1549.3 2030.6 1607.08 1970.13 1607.08C1908.36 1607.08 1873.42 1549.3 1873.42 1492.89ZM2019.86 1460.64C2019.86 1448.53 2018.51 1439.14 2015.83 1429.74C2009.11 1410.92 1997.01 1397.49 1970.13 1397.49C1941.94 1397.49 1928.49 1410.92 1923.12 1429.74C1920.43 1439.14 1919.08 1448.53 1919.08 1460.64V1527.83C1919.08 1539.91 1919.08 1551.99 1921.77 1562.75C1927.14 1584.23 1940.59 1599.03 1970.13 1599.03C1999.69 1599.03 2011.8 1584.23 2017.17 1562.75C2019.86 1551.99 2019.86 1539.9 2019.86 1527.83V1460.64ZM2271.1 1605.75H2261.71L2131.37 1409.58V1593.66H2160.93V1601.71H2091.08V1593.66H2120.63V1402.86H2091.08V1394.81H2170.33L2261.71 1530.51V1402.86H2232.15V1394.81H2302V1402.86H2271.1V1605.75ZM2339.63 1604.4H2334.26V1542.59H2343.66C2350.38 1572.14 2367.85 1599.03 2400.11 1599.03C2424.29 1599.03 2447.12 1580.21 2447.12 1556.02C2447.12 1526.49 2420.27 1521.12 2397.42 1513.04C2392.05 1510.36 2385.33 1509.01 2378.6 1506.32C2350.38 1498.27 2335.62 1476.76 2335.62 1447.19C2335.62 1414.95 2359.81 1390.77 2392.07 1390.77C2410.86 1390.77 2422.97 1394.81 2437.73 1405.55L2449.82 1393.46H2455.19V1452.56H2444.45C2441.77 1423.03 2422.97 1397.49 2392.07 1397.49C2371.9 1397.49 2353.1 1412.26 2353.1 1433.77C2353.1 1456.62 2369.21 1459.31 2388.03 1464.68C2396.09 1467.36 2402.8 1468.71 2408.17 1471.39C2415.02 1473.23 2421.76 1475.47 2428.34 1478.11C2453.88 1490.23 2463.27 1510.36 2463.27 1538.58C2463.27 1577.54 2437.73 1607.1 2398.77 1607.1C2384 1607.1 2365.18 1600.38 2354.44 1590.96L2339.63 1604.4ZM1451.52 942.02C1456.92 942.02 1460.95 936.638 1460.95 932.617C1460.95 927.248 1456.92 921.865 1451.52 921.865C1446.15 921.865 1442.12 927.248 1442.12 932.617C1442.12 936.638 1446.15 942.02 1451.52 942.02Z" fill="white"></path>
  <path fill-rule="evenodd" clip-rule="evenodd" d="M1439.44 920.529L1447.49 923.214L1451.52 915.146L1454.21 923.214L1463.64 920.529L1459.6 928.583L1467.66 932.617L1459.6 935.302L1463.64 944.705L1454.21 940.684L1451.52 948.738L1447.49 940.684L1439.44 944.705L1442.12 935.302L1434.07 932.617L1442.12 928.583L1439.44 920.529ZM1209.7 514.77C1224.48 516.119 1236.58 522.837 1237.91 541.643C1220.44 540.294 1212.37 529.542 1209.7 514.77ZM1209.7 486.548C1224.48 487.896 1236.58 494.615 1239.26 512.085C1220.44 512.085 1212.37 501.333 1209.7 486.548ZM1211.04 456.99C1225.81 458.338 1236.56 465.057 1239.25 483.863C1221.79 482.527 1213.72 471.775 1211.04 456.99ZM1211.04 428.78C1225.81 430.129 1237.91 436.835 1239.25 454.305C1221.79 454.305 1213.72 443.566 1211.04 428.78ZM1211.04 399.222C1225.81 400.571 1237.91 408.638 1240.6 426.096C1221.79 424.747 1213.72 413.995 1211.04 399.222ZM1212.37 371C1227.16 372.349 1237.91 379.067 1240.6 396.525C1223.13 396.537 1215.07 385.786 1212.37 371Z" fill="white"></path>
  <path fill-rule="evenodd" clip-rule="evenodd" d="M1202.97 1171.77H1282.25V1169.08L1256.72 1156.98L1243.28 371C1243.28 369.651 1243.28 369.651 1241.93 369.651V371L1228.5 1156.98L1202.97 1169.08V1171.77ZM1426.01 622.251C1423.33 638.372 1415.25 649.124 1397.79 649.124C1399.14 631.667 1411.23 623.599 1426.01 622.251ZM1427.36 649.124C1424.68 663.909 1416.6 674.648 1399.14 674.648C1400.47 657.178 1412.56 650.473 1427.36 649.124ZM1335.99 620.915C1318.53 620.915 1310.45 610.163 1307.77 595.39C1322.56 596.726 1334.64 603.444 1335.99 620.915Z" fill="white"></path>
  <path fill-rule="evenodd" clip-rule="evenodd" d="M1287.62 705.555C1268.81 705.555 1260.75 694.803 1258.05 680.031C1274.18 681.367 1284.94 688.085 1287.62 705.555ZM1479.75 786.162C1464.97 787.511 1452.9 794.23 1450.19 811.687C1469.01 811.687 1477.06 800.948 1479.75 786.162ZM1455.58 889.622C1471.69 890.971 1483.78 897.676 1485.12 915.147C1466.32 915.147 1458.27 904.395 1455.58 889.622ZM1487.8 851.997C1471.69 850.648 1459.6 843.93 1459.6 825.124C1478.4 826.472 1486.45 837.224 1487.8 851.997ZM1002.78 940.684C1000.1 937.986 1000.1 935.302 1000.1 935.302L994.729 782.142C994.729 779.444 993.38 778.108 993.38 778.108C992.044 778.108 992.044 779.457 992.044 782.142L985.312 944.705C985.312 944.705 985.313 948.738 988.01 950.074L1241.95 1099.21V1062.94L1002.78 940.684Z" fill="white"></path>
  <path fill-rule="evenodd" clip-rule="evenodd" d="M1481.08 940.684C1485.11 937.987 1485.11 935.302 1485.11 935.302L1490.51 782.142C1490.51 779.444 1490.51 778.108 1491.86 778.108C1491.86 778.108 1493.21 779.457 1493.21 782.142L1498.58 944.718C1498.58 944.718 1499.93 948.751 1497.23 950.087L1241.93 1099.21V1062.94L1481.08 940.684ZM1047.13 830.506C1044.43 829.157 1044.43 827.821 1044.43 827.821L1040.39 698.837C1040.39 697.501 1040.39 696.152 1039.05 696.152C1039.05 696.152 1037.7 697.501 1037.7 698.837L1033.69 834.54C1033.69 834.54 1032.34 837.224 1035.04 838.573L1241.94 960.826V931.268L1047.13 830.506Z" fill="white"></path>
  <path fill-rule="evenodd" clip-rule="evenodd" d="M1436.75 830.506C1439.44 829.157 1439.44 827.821 1439.44 827.821L1444.8 698.837V696.152C1446.15 696.152 1446.15 697.501 1446.15 698.837L1451.52 834.54C1451.52 834.54 1451.52 837.225 1450.17 838.573L1241.93 960.826V931.268L1436.75 830.506ZM1095.49 721.677C1092.81 720.328 1092.81 718.992 1092.81 718.992L1090.12 622.251L1088.77 620.902L1087.42 622.251L1084.74 727.046C1084.74 727.046 1084.74 729.731 1086.09 731.08L1241.94 823.788V798.25L1095.49 721.677ZM1389.74 721.677C1391.08 720.328 1391.08 718.992 1391.08 718.992L1395.12 622.251V620.902C1396.47 620.902 1396.47 622.251 1396.47 622.251L1400.5 727.046C1400.5 727.046 1400.5 729.731 1399.15 731.08L1241.94 823.788V798.25L1389.74 721.677ZM1139.82 616.881C1138.47 616.881 1138.47 615.532 1138.47 615.532L1135.79 547.013C1135.79 545.664 1134.44 545.664 1134.44 545.664V547.013L1130.4 620.902C1130.4 620.902 1130.4 623.587 1131.75 623.587L1241.92 689.421V670.615L1139.82 616.881ZM1176.1 529.543V528.207L1173.41 485.212C1173.41 483.863 1173.41 483.863 1172.06 483.863V485.212L1169.38 533.576C1169.38 533.576 1169.38 534.925 1170.73 534.925L1241.93 576.571V564.483L1176.1 529.543ZM1307.77 529.543C1309.12 529.543 1309.12 528.207 1309.12 528.207L1311.8 485.212V483.863V485.212L1314.51 533.576V534.925L1241.94 576.571V564.483L1307.77 529.543ZM1345.38 616.881C1346.73 616.881 1346.73 615.532 1346.73 615.532L1349.41 547.013V545.664C1350.77 545.664 1350.77 545.664 1350.77 547.013L1353.46 620.902C1353.46 620.902 1353.46 623.587 1352.11 623.587L1241.92 689.421V670.615L1345.38 616.881Z" fill="white"></path>
  <path fill-rule="evenodd" clip-rule="evenodd" d="M1313.14 509.401C1331.95 509.401 1340.01 498.649 1342.69 483.863C1327.93 483.863 1315.85 491.931 1313.14 509.401ZM1311.8 483.863C1330.62 483.863 1338.67 473.111 1341.36 458.339C1326.59 459.688 1314.51 466.393 1311.8 483.863ZM1310.45 498.649C1292.99 498.649 1284.94 486.548 1282.25 471.776C1297.03 473.124 1309.11 481.179 1310.45 498.649ZM1309.11 524.173C1291.66 522.825 1283.6 512.086 1280.89 497.3C1295.68 498.649 1307.77 505.354 1309.11 524.173ZM1380.32 547.013C1377.63 563.135 1369.58 573.874 1352.12 573.874C1353.46 556.416 1365.55 548.362 1380.32 547.013ZM1378.97 520.14C1364.2 521.489 1352.12 529.543 1350.77 547.013C1368.23 547.013 1376.29 536.261 1378.97 520.14ZM1059.21 596.726C1073.99 598.062 1086.09 604.78 1088.77 623.587C1069.97 622.251 1061.9 611.499 1059.21 596.726ZM1059.21 622.251C1061.9 638.372 1069.97 649.124 1087.42 649.124C1086.09 631.667 1073.99 623.6 1059.21 622.251ZM1057.86 649.124C1060.56 663.91 1068.62 674.649 1086.07 674.649C1084.74 657.178 1072.65 650.473 1057.86 649.124ZM1056.52 674.649C1059.21 690.77 1067.27 701.522 1086.07 701.522C1083.4 684.065 1072.65 675.997 1056.52 674.649ZM1084.74 727.046C1067.27 727.046 1059.21 716.307 1056.52 701.522C1071.3 702.871 1083.4 709.589 1084.74 727.046ZM1131.77 620.915C1112.95 620.915 1104.89 610.163 1102.21 595.39C1118.33 596.726 1129.08 603.445 1131.77 620.915ZM1121.01 667.943C1106.23 669.292 1094.14 677.346 1092.81 694.817C1110.26 694.804 1118.33 684.065 1121.01 667.943ZM1094.14 720.341C1111.61 718.992 1119.67 708.24 1122.35 693.468C1107.58 694.804 1095.49 701.522 1094.14 720.341ZM1142.51 705.556C1139.82 720.341 1131.77 731.08 1114.3 731.08C1115.64 713.61 1127.73 706.891 1142.51 705.556ZM1164.01 716.307C1161.31 731.08 1153.26 741.832 1135.8 741.832C1137.14 724.362 1149.22 717.643 1164.01 716.307ZM1185.51 727.046C1182.83 741.832 1174.76 752.584 1155.95 752.584C1158.63 735.114 1170.73 728.395 1185.51 727.046ZM1207 737.798C1204.32 752.584 1194.92 763.323 1177.45 764.672C1180.13 745.866 1190.88 739.147 1207 737.798ZM1198.94 775.424C1216.41 774.075 1224.46 763.323 1227.15 748.55C1212.37 749.886 1200.29 756.605 1198.94 775.424ZM1138.48 615.532C1157.29 615.532 1165.36 604.78 1168.04 590.008C1151.92 591.344 1141.17 598.062 1138.48 615.532ZM1188.2 600.76C1185.51 615.545 1177.45 626.284 1159.99 627.633C1161.32 608.814 1173.41 602.096 1188.2 600.76ZM1209.7 611.499C1207 626.284 1198.95 637.023 1181.48 638.372C1182.83 619.566 1194.92 612.848 1209.7 611.499ZM1231.19 622.251C1228.51 637.036 1220.44 649.124 1201.63 649.124C1204.32 631.667 1216.42 623.6 1231.19 622.251ZM1099.52 739.147C1096.84 753.933 1087.42 764.672 1069.97 764.672C1072.65 747.201 1083.4 740.483 1099.52 739.147ZM1090.12 776.76C1092.81 759.289 1103.56 751.235 1119.68 749.886C1116.99 766.021 1107.58 776.76 1090.12 776.76ZM1110.26 788.86C1112.95 771.39 1123.7 763.323 1139.82 761.987C1137.14 778.108 1127.73 788.86 1110.26 788.86ZM1130.42 800.948C1133.12 782.142 1143.85 775.424 1159.98 774.075C1157.29 788.86 1147.89 799.599 1130.42 800.948ZM1170.73 823.788C1173.41 806.318 1184.16 799.599 1200.29 798.25C1197.6 813.036 1188.2 823.788 1170.73 823.788ZM1145.2 631.667C1142.51 646.439 1134.45 657.191 1115.64 658.527C1118.33 639.721 1129.08 633.003 1145.2 631.667ZM1135.8 669.279C1138.48 651.809 1150.59 645.09 1165.36 643.755C1162.67 658.527 1154.61 669.279 1135.8 669.279ZM1157.29 681.367C1158.64 663.897 1170.73 657.178 1185.51 655.842C1182.83 670.628 1174.76 681.367 1157.29 681.367ZM1177.45 693.455C1178.79 675.984 1190.88 669.279 1205.66 667.93C1202.97 682.716 1194.92 693.455 1177.45 693.455ZM1197.6 705.556C1215.06 705.556 1223.13 694.804 1225.81 680.031C1211.04 681.367 1198.94 688.085 1197.6 705.556ZM1182.83 541.644C1180.13 556.416 1170.73 567.168 1153.27 568.517C1155.94 549.698 1166.71 542.98 1182.83 541.644ZM1174.76 579.256C1176.11 561.786 1188.2 555.067 1202.98 553.731C1200.29 568.504 1192.23 579.256 1174.76 579.256ZM1194.92 591.344C1196.26 573.874 1208.35 567.168 1223.13 565.819C1220.44 580.605 1212.37 591.344 1194.92 591.344ZM1169.39 533.576C1151.92 533.576 1143.87 522.825 1141.18 508.052C1155.94 509.401 1168.04 516.106 1169.39 533.576ZM1170.73 509.401C1153.26 509.401 1145.2 498.649 1142.51 483.863C1157.29 483.863 1169.39 491.931 1170.73 509.401ZM1172.08 483.863C1154.61 483.863 1146.55 473.111 1143.87 458.339C1158.63 459.688 1170.73 466.393 1172.08 483.863ZM1173.41 497.3C1192.23 497.3 1200.29 486.548 1202.97 470.427C1188.2 471.776 1176.1 479.843 1173.41 497.3ZM1176.1 524.173C1193.57 522.825 1201.63 512.086 1204.32 497.3C1189.53 498.649 1177.45 505.354 1176.1 524.173ZM1103.54 569.853C1106.23 584.638 1114.3 595.377 1131.77 596.726C1130.42 577.92 1118.33 571.202 1103.54 569.853ZM1104.89 545.677C1107.58 560.45 1115.64 571.202 1133.12 571.202C1131.77 553.731 1119.68 547.013 1104.89 545.677ZM1104.89 520.14C1121.01 521.489 1131.77 529.543 1134.45 547.013C1115.64 547.013 1107.58 536.261 1104.89 520.14ZM1005.47 786.163C1020.25 787.512 1032.34 794.23 1033.69 811.687C1016.22 811.687 1008.15 800.948 1005.47 786.163ZM1008.15 708.24C1022.94 709.589 1035.02 717.643 1036.36 735.114C1018.9 735.114 1010.85 724.362 1008.15 708.24ZM1006.82 735.114C1021.6 736.462 1033.69 743.168 1036.37 761.974C1017.57 760.638 1009.5 749.886 1006.82 735.114ZM1326.59 811.687C1327.83 811.717 1329.06 811.495 1330.22 811.033C1331.37 810.571 1332.42 809.88 1333.3 809C1334.18 808.121 1334.87 807.072 1335.33 805.918C1335.8 804.763 1336.02 803.527 1335.99 802.284C1335.99 796.902 1331.95 792.868 1326.59 792.868C1321.22 792.868 1315.85 796.902 1315.85 802.284C1315.85 807.667 1321.22 811.687 1326.59 811.687Z" fill="white"></path>
  <path fill-rule="evenodd" clip-rule="evenodd" d="M1314.51 790.196L1322.56 792.881L1326.59 784.827L1329.27 792.881L1338.67 790.196L1334.64 798.25L1342.69 802.297L1334.64 804.969L1338.67 814.385L1329.27 810.351L1326.59 818.418L1322.56 810.351L1314.51 814.385L1317.17 804.969L1309.12 802.297L1317.17 798.25L1314.51 790.196ZM1294.34 885.589C1299.71 885.589 1303.75 880.206 1303.75 874.837C1303.75 869.454 1299.71 865.434 1294.34 865.434C1288.97 865.434 1284.94 869.467 1284.94 874.837C1284.94 880.219 1288.97 885.589 1294.34 885.589Z" fill="white"></path>
  <path fill-rule="evenodd" clip-rule="evenodd" d="M1282.26 862.749L1291.66 866.783L1294.34 858.715L1298.36 866.783L1306.43 862.749L1303.73 872.165L1311.8 874.85L1303.73 878.87L1306.43 886.938L1298.36 884.253L1294.34 892.307L1291.66 884.253L1282.26 886.938L1286.29 878.87L1278.21 874.85L1286.29 872.165L1282.26 862.749ZM1356.14 963.524C1361.51 963.524 1365.55 958.155 1365.55 952.772C1365.55 947.39 1361.51 943.369 1356.14 943.369C1350.77 943.369 1346.72 947.403 1346.72 952.772C1346.72 958.142 1350.77 963.524 1356.14 963.524Z" fill="white"></path>
  <path fill-rule="evenodd" clip-rule="evenodd" d="M1344.04 940.684L1352.12 944.705L1356.14 936.638L1360.18 944.705L1368.23 940.684L1364.21 950.074L1373.6 952.772L1364.21 956.793L1368.23 964.86L1360.18 962.175L1356.14 970.242L1352.12 962.175L1344.04 964.86L1346.73 956.793L1338.67 952.772L1346.73 950.074L1344.04 940.684ZM1376.29 1062.95C1381.66 1062.95 1385.69 1057.57 1385.69 1052.2C1385.69 1048.16 1381.66 1042.8 1376.29 1042.8C1370.92 1042.8 1366.88 1048.18 1366.88 1052.2C1366.9 1057.57 1370.92 1062.95 1376.29 1062.95Z" fill="white"></path>
  <path fill-rule="evenodd" clip-rule="evenodd" d="M1364.21 1040.1L1372.26 1044.13L1376.29 1036.06L1380.32 1044.13L1388.4 1040.1L1385.69 1049.5L1393.77 1052.19L1385.69 1056.22L1388.4 1064.29L1380.32 1061.6L1376.29 1069.66L1372.26 1061.6L1364.21 1064.29L1366.9 1056.22L1358.84 1052.19L1366.9 1049.5L1364.21 1040.1ZM1350.77 1061.6C1353.46 1076.39 1349.41 1089.82 1333.29 1096.54C1327.93 1079.07 1335.99 1068.32 1350.77 1061.6ZM1464.97 1019.94C1448.84 1018.59 1436.75 1010.54 1436.75 993.069C1455.58 993.069 1463.64 1005.16 1464.97 1019.94ZM1318.53 959.49C1302.4 958.142 1290.31 951.423 1288.97 933.953C1307.77 933.953 1315.85 944.705 1318.53 959.49ZM1440.78 794.23C1423.33 792.881 1415.25 782.142 1412.56 767.356C1427.36 768.705 1439.43 775.424 1440.78 794.23ZM1344.04 877.535C1326.58 877.535 1317.17 866.783 1314.51 852.01C1330.62 853.346 1341.36 860.064 1344.04 877.535ZM1392.42 694.804C1373.6 694.804 1365.55 684.052 1362.86 667.93C1378.97 669.279 1389.73 677.346 1392.42 694.804ZM1537.53 909.777C1521.42 908.429 1509.3 901.71 1507.97 882.904C1526.79 884.253 1534.84 894.992 1537.53 909.777ZM1365.55 791.545C1368.23 806.331 1364.2 819.754 1348.06 826.473C1342.69 809.002 1352.12 798.25 1365.55 791.545ZM1387.05 889.622C1389.73 904.395 1385.69 917.832 1369.57 924.55C1364.21 907.093 1373.6 896.341 1387.05 889.622ZM1314.51 1023.98C1297.03 1023.98 1288.97 1013.22 1286.29 997.103C1301.05 998.452 1313.14 1006.51 1314.51 1023.98ZM1431.38 1134.15C1431.38 1114 1448.84 1096.54 1468.99 1096.54C1489.15 1096.54 1505.27 1114.01 1505.27 1134.15C1505.27 1154.3 1489.16 1171.77 1468.99 1171.77C1448.83 1171.77 1431.38 1154.31 1431.38 1134.15ZM1498.56 1134.15C1498.49 1126.34 1495.36 1118.86 1489.83 1113.33C1484.3 1107.8 1476.82 1104.67 1469.01 1104.6C1451.52 1104.6 1438.1 1118.03 1438.1 1134.15C1438.1 1151.62 1451.52 1163.71 1469.01 1163.71C1485.11 1163.71 1498.56 1151.61 1498.56 1134.15ZM1487.8 1154.31H1478.4L1468.99 1136.84H1460.94V1154.31H1452.88V1114.01H1473.03C1475.71 1114.01 1481.08 1114.01 1483.77 1116.7C1487.8 1118.05 1487.8 1122.07 1487.8 1126.1C1487.8 1134.17 1485.11 1136.85 1477.06 1136.85L1487.8 1154.31ZM1473.03 1131.46C1477.06 1131.46 1481.08 1130.11 1481.08 1126.09C1481.08 1120.7 1474.36 1120.7 1471.68 1120.7H1460.94V1131.46H1473.03ZM2435.02 1925.5C2430.99 1929.54 2402.78 1949.69 2375.89 1960.43C2378.58 1956.4 2381.26 1953.71 2383.97 1951.03C2392.03 1941.63 2396.06 1932.21 2396.06 1918.79C2394.71 1904.01 2382.61 1894.6 2374.55 1882.51C2379.92 1877.14 2390.69 1866.38 2390.69 1856.97C2390.6 1855.58 2390 1854.27 2389.01 1853.28C2388.02 1852.29 2386.71 1851.7 2385.32 1851.6C2373.21 1851.6 2367.84 1865.05 2367.84 1874.46C2367.84 1877.14 2370.52 1882.51 2370.52 1882.51C2354.41 1906.7 2322.16 1928.18 2314.08 1936.24C2311.39 1938.95 2301.99 1949.69 2301.99 1960.43C2300.64 1972.52 2303.34 1983.28 2320.81 1983.28C2332.9 1983.28 2351.72 1977.92 2367.82 1967.15C2402.75 1956.41 2437.69 1928.19 2437.69 1928.19L2435.02 1925.5ZM2316.77 1979.25C2306.04 1979.25 2304.69 1969.85 2304.69 1961.77C2306.04 1952.36 2310.06 1945.66 2315.45 1941.63C2322.17 1933.55 2354.41 1912.07 2371.87 1885.18C2371.87 1885.18 2381.27 1901.32 2381.27 1909.37C2383.98 1941.64 2336.94 1976.57 2316.77 1979.25ZM2026.58 1924.16C2022.54 1926.84 1994.33 1947.01 1967.45 1957.75C1970.13 1955.06 1972.82 1951.03 1975.53 1948.34C1983.58 1938.94 1987.61 1929.53 1987.61 1916.1C1986.27 1901.33 1974.19 1891.91 1966.11 1881.17C1971.51 1874.46 1982.25 1863.69 1982.25 1855.64C1982.25 1852.95 1979.56 1848.92 1976.88 1848.92C1964.76 1848.92 1959.39 1862.34 1959.39 1871.77C1959.39 1875.8 1962.08 1879.82 1962.08 1879.82C1945.97 1904.01 1913.71 1926.84 1905.66 1933.56C1902.97 1937.61 1893.55 1948.36 1893.55 1957.75C1892.2 1969.86 1894.89 1980.6 1912.36 1980.6C1924.45 1980.6 1943.27 1975.23 1959.38 1964.47C1994.31 1953.73 2029.25 1925.5 2029.25 1925.5L2026.58 1924.16ZM1908.36 1976.57C1897.59 1977.92 1896.24 1968.49 1896.24 1959.08C1897.59 1951.03 1901.64 1944.31 1907.01 1938.94C1913.73 1930.86 1945.97 1909.38 1963.43 1882.5C1963.43 1882.5 1972.83 1898.61 1972.83 1906.69C1975.53 1938.95 1928.49 1975.23 1908.36 1976.57ZM895.301 1924.16C889.932 1928.19 863.059 1948.34 834.836 1957.75C837.521 1955.06 841.555 1952.38 842.904 1948.34C850.971 1938.94 856.34 1930.86 854.991 1916.1C853.655 1901.33 841.555 1891.91 833.5 1881.17C838.883 1875.8 849.622 1865.07 849.622 1855.64C849.528 1854.24 848.932 1852.93 847.945 1851.94C846.957 1850.96 845.646 1850.36 844.252 1850.27C833.5 1850.27 828.131 1863.69 828.131 1873.12C828.131 1875.8 829.48 1881.17 829.48 1881.17C813.345 1905.36 782.451 1926.84 774.384 1934.91C770.351 1937.62 762.284 1948.36 760.948 1959.1C759.599 1971.21 762.296 1980.6 779.754 1980.6C791.855 1980.6 810.661 1976.57 826.782 1964.47C861.71 1955.06 896.65 1926.85 896.65 1926.85L895.301 1924.16ZM775.72 1976.57C764.968 1977.92 763.632 1968.49 764.968 1959.08C764.968 1951.03 770.351 1944.31 774.371 1938.94C781.09 1930.86 813.333 1909.38 832.152 1883.85C832.152 1883.85 840.219 1898.62 840.219 1908.03C842.904 1940.3 797.224 1975.23 775.72 1976.57Z" fill="white"></path>
</svg>
