<?xml version="1.0" encoding="UTF-8"?>
<svg xmlns="http://www.w3.org/2000/svg" width="2500" height="2403" viewBox="0 0 2500 2403" fill="none">
  <g clip-path="url(#clip0)">
    <path fill-rule="evenodd" clip-rule="evenodd" d="M2402.98 2093.31L2258.68 2114.63L2258.53 2258.97L1278.89 2259.59L309.662 2402.98L288.305 2258.67L142.513 2258.57L143.39 1278.91L0 309.692L144.261 288.366L144.411 143.234L1124.06 143.414L2093.28 0.0244141L2114.64 144.321L2258.68 144.435L2259.6 1124.08L2402.98 2093.31ZM64.1465 357.324L2045.68 64.1711L2338.8 2045.67L357.3 2338.82L64.1465 357.324Z" fill="white"></path>
    <path d="M2101.38 1021.19C2081.47 1094.74 2034.13 1133.52 2022.69 1138.41C2011.2 1143.33 1989.55 1151.31 1991.99 1103.16C1994.4 1055.05 2027.02 999.283 2042.95 981.537C2058.87 963.786 2070.61 949.867 2090.52 947.968C2090.55 947.968 2121.28 947.674 2101.38 1021.19ZM2096.2 907.322C1979.2 931.166 1924.64 1038.83 1924.64 1038.83C1892.93 1082.79 1872.22 1197.27 1985.43 1184.22C2098.64 1171.17 2157.06 1092.81 2180.58 1054.5C2184.01 1048.91 2187.03 1043.08 2189.61 1037.05L2171.43 914.285C2154.73 904.121 2130.35 900.366 2096.2 907.322Z" fill="white"></path>
    <path d="M1943.66 894.863C1882.14 899.05 1830.93 956.751 1807.09 988.638C1806.83 988.892 1806.5 989.069 1806.15 989.149C1805.87 989.188 1805.58 989.152 1805.32 989.043C1805.05 988.934 1804.82 988.757 1804.65 988.53C1804.58 988.386 1804.48 988.236 1804.39 988.091C1804.36 987.977 1804.29 987.839 1804.29 987.725C1804.29 987.725 1804.25 987.761 1804.25 987.839C1794.27 970.778 1774.54 950.551 1737.74 952.774C1714.88 954.156 1687.98 971.98 1685.73 978.107C1685.73 978.107 1681.13 985.616 1689.52 987.148C1697.9 988.716 1740.58 990.759 1738.46 1035.44C1738.46 1035.44 1738.86 1099.85 1714.52 1188.15C1714.52 1188.15 1700.63 1218.08 1732.74 1217.31C1764.89 1216.55 1825.36 1208.38 1827.36 1186.99C1829.4 1165.59 1828.34 1169.38 1828.34 1169.38C1828.34 1169.38 1828.71 1091.96 1820.98 1041.3C1820.96 1040.29 1821.11 1039.28 1821.41 1038.31C1851.78 977.266 1902.22 964.038 1902.22 964.038C1921.57 959.154 1934.63 971.799 1939.36 976.87C1944.1 981.934 1947.16 979.891 1947.16 979.891C1960.47 975.554 1972.32 953.471 1972.32 953.471C1978.07 945.89 1998.44 891.145 1943.66 894.863Z" fill="white"></path>
    <path d="M1513.98 1189.58C1513.98 1189.58 1507.49 1121.97 1499.58 1047.47C1516.68 1034.42 1554.48 1010.36 1571.46 1039.12C1593.29 1076.01 1559.61 1161.3 1513.98 1189.58ZM1640.92 973.482C1582.57 953.291 1520.02 993.234 1497.76 1009.57C1497.65 1009.64 1497.58 1009.71 1497.46 1009.71C1496.52 1009.85 1495.68 1009.2 1495.42 1008.32C1488.17 942.063 1480.55 878.571 1476.07 859.798C1465.6 815.986 1470.31 761.169 1407.91 770.391C1388.67 773.238 1345.29 780.453 1321.12 795.76C1319.52 796.781 1316.86 800.277 1324.51 802.428C1324.51 802.428 1347.26 810.592 1358.85 848.895C1358.85 848.895 1412.65 1001.28 1421.65 1220.81C1422.67 1246.07 1434.59 1251.94 1434.59 1251.94C1474.75 1275.85 1558.07 1211.52 1616.31 1149.05C1675.77 1085.34 1713.49 998.556 1640.92 973.482ZM1670.77 1291.01C1670.77 1291.01 1668.23 1282.74 1666.91 1279.46C1665.34 1275.53 1661.3 1276.29 1661.3 1276.29C1652.51 1277.6 1655.35 1287.73 1655.35 1287.73C1683.38 1405.57 1698.29 1685.67 1468.24 1780.22C1238.14 1874.72 1045.07 1746.24 1014.39 1725.32C928.408 1666.64 914.771 1618.06 913.095 1610.36C913.112 1610.13 913.207 1609.9 913.366 1609.72C913.525 1609.54 913.738 1609.42 913.972 1609.38C929.645 1610.99 1114.95 1627.71 1300.07 1554.64C1493.61 1478.24 1622.56 1324.43 1650.44 1254.52C1650.44 1254.52 1655.22 1245.38 1649.39 1242.86C1643.85 1240.56 1640.27 1247.2 1640.27 1247.2C1638.23 1249.83 1636.08 1252.52 1633.82 1255.44C1553.16 1358.51 1436.2 1463.45 1221.08 1522.86C988.247 1587.19 804.079 1523.04 804.079 1523.04C804.079 1523.04 800.799 1521.44 798.721 1522.35C796.684 1523.23 796.828 1529.57 796.973 1531.94C796.973 1531.94 813.595 1764.33 1134.12 1853.04C1438.89 1937.35 1792.62 1768.81 1670.77 1291.01ZM269.352 1160.09C269.352 1160.09 331.967 1127.73 414.412 1107.57L415.397 1107.43C416.238 1113.37 417.037 1119.12 417.734 1124.59C418.611 1131.55 419.626 1139.17 420.683 1147.23C350.668 1165.49 302.188 1177.3 274.855 1181.16C274.855 1181.16 249.594 1186.85 248.759 1178.06C247.996 1170.23 261.663 1164.43 269.352 1160.09ZM320.667 1218.95C344.907 1212.36 390.977 1199.97 426.877 1191.11C437.81 1266.96 451.663 1354.87 452.06 1356.69C452.06 1356.69 460.194 1396.92 469.956 1403.78C478.811 1410.05 480.565 1412.16 516.789 1408.41C553.056 1404.62 581.885 1396.38 581.374 1384.9C581.374 1384.9 581.627 1379.87 580.131 1372.54C580.131 1372.54 562.307 1274.32 545.619 1160.67C567.521 1155.28 588.295 1150.03 605.356 1145.91C625.547 1141.06 644.284 1135.45 663.014 1131.48C671.983 1194.35 686.744 1291.12 686.744 1291.12C691.297 1320.68 697.965 1345.82 697.965 1345.82C697.965 1345.82 707.337 1373.49 729.678 1371.48C747.466 1369.91 783.222 1363.58 795.471 1353.62C804.908 1345.93 794.45 1334.45 793.026 1327.71C793.026 1327.71 764.046 1243.8 747.43 1114.82C829.947 1100.02 882.872 1094.81 882.872 1094.81C882.872 1094.81 787.962 1192.16 818.761 1264C849.555 1335.88 945.673 1314.41 1011.75 1230.36C1011.75 1230.36 1039.49 1311.41 1127.95 1284.01C1127.95 1284.01 1132.14 1282.77 1132.47 1279.74C1132.83 1276.72 1129.95 1273.36 1126.49 1271.47C1126.49 1271.47 1096.78 1257.77 1093.83 1208.05C1090.83 1158.36 1110.3 1074.69 1110.23 1071.51C1110.15 1068.34 1111.17 1048.3 1085.81 1054.45C1060.44 1060.58 1029.97 1079.67 1023.3 1086.38C1016.52 1093.16 1015.24 1099.28 1011.82 1111.16C1011.82 1111.16 983.832 1203.15 933.238 1248.65C878.312 1298 891.577 1230.78 907.292 1197.03C907.292 1197.03 938.128 1125.45 1010.58 1068.96C1010.58 1068.96 1032.6 1053.29 1053.15 1044.76C1059.45 1042.13 1063.32 1033.31 1049.29 1029.41C1049.29 1029.41 1032.7 1026.17 1007.7 1027.48C1007.7 1027.48 909.911 1031.27 742.029 1066.34C739.252 1036.71 737.441 1007 736.599 977.26C733.685 872.834 741.885 830.044 741.885 830.044C741.885 830.044 744.288 815.578 735.433 810.508C735.433 810.508 727.924 803.077 705.619 805.371C669.755 809.09 640.703 821.591 626.051 830.122C626.051 830.122 619.305 833.876 621.347 836.976C623.06 839.487 626.742 839.962 630.899 847.687C630.899 847.687 637.423 855.671 640.012 901.267C640.012 901.267 656.557 1083.4 656.815 1085.55C634.839 1090.85 612.921 1096.39 591.064 1102.17C572.946 1107.03 555.639 1111.61 538.98 1116.02C532.018 1065.54 525.854 1014.52 522.142 969.907L514.518 867.229C514.518 867.229 516.122 832.351 492.285 832.681C470.857 833.005 403.466 851.628 360.123 886.074C346.601 896.828 362.496 899.453 364.677 900.726C364.677 900.726 378.019 904.913 382.465 924.161C382.465 924.161 400.979 1014.22 412.501 1088.25L410.97 1088.64C410.97 1088.64 259.458 1129.17 184.738 1172.81L194.831 1240.85C221.93 1242.32 262.756 1236.63 320.667 1218.95Z" fill="white"></path>
    <path d="M1230.45 1177.88C1209.68 1174.56 1197.54 1172.01 1169.4 1164.65C1141.23 1157.28 1134.08 1138.41 1134.08 1138.41C1110.24 1071.49 1196.08 1003.48 1196.08 1003.48C1259.39 949.933 1309.1 938.999 1309.1 938.999C1360.46 928.252 1371.43 983.502 1371.43 983.502C1371.43 983.502 1373.73 997.283 1373.25 1002.71C1373.25 1002.71 1373.99 1004.64 1371.22 1005.01C1336.48 1009.78 1309.58 1020.13 1309.58 1020.13C1226.22 1054 1221.3 1093.33 1221.3 1093.33C1218.53 1106.81 1222.07 1127.8 1242.33 1135.97C1261.94 1143.81 1338.04 1161.6 1338.04 1161.6C1385.94 1173.19 1390.27 1197.24 1390.27 1197.24C1411.66 1252.97 1341.61 1325.43 1341.61 1325.43C1273.74 1399.54 1236.17 1417.07 1189.3 1428.37C1142.43 1439.66 1105.57 1382.62 1105.57 1382.62C1101.89 1377.34 1089.93 1364.8 1091.03 1355.87C1092.08 1347.01 1103.86 1350.29 1105.2 1351.43C1108.48 1354.16 1115.41 1356.75 1115.41 1356.75C1151.5 1371.91 1187.14 1347.53 1187.14 1347.53C1240.75 1308.28 1273.99 1259.55 1275.71 1256.63C1277.39 1253.71 1298.82 1220.11 1286.46 1201.26C1274.14 1182.35 1228.36 1177.97 1228.36 1177.97" fill="white"></path>
    <path d="M2406.04 2197.77V2170.33H2424.38C2433.71 2170.33 2443.7 2172.37 2443.7 2183.3C2443.7 2196.93 2433.53 2197.73 2422.12 2197.73H2406.04V2197.77ZM2406.04 2209.18H2421.5L2444.94 2247.63H2459.99L2434.77 2208.6C2447.78 2206.96 2457.73 2200.03 2457.73 2184.18C2457.73 2166.68 2447.37 2158.96 2426.46 2158.96H2392.67V2247.67H2406.07V2209.18H2406.04V2209.18ZM2422.34 2280.14C2464.22 2280.14 2500.01 2247.59 2500.01 2203.05C2500.01 2158.91 2464.26 2126.36 2422.34 2126.36C2380.02 2126.36 2344.23 2158.91 2344.23 2203.05C2344.23 2247.59 2380.02 2280.14 2422.34 2280.14ZM2359.69 2203.05C2359.69 2166.63 2387.13 2139.19 2422.34 2139.19C2457.11 2139.19 2484.55 2166.63 2484.55 2203.05C2484.55 2240.12 2457.11 2267.35 2422.34 2267.35C2387.13 2267.31 2359.69 2240.08 2359.69 2203.05Z" fill="white"></path>
  </g>
  <defs>
    <clipPath id="clip0">
      <rect width="2500" height="2403" fill="white"></rect>
    </clipPath>
  </defs>
</svg>
