<?xml version="1.0" encoding="UTF-8"?>
<svg xmlns="http://www.w3.org/2000/svg" width="2500" height="2500" viewBox="0 0 2500 2500" fill="none">
  <path fill-rule="evenodd" clip-rule="evenodd" d="M36.7695 1552.78C41.5035 1578.85 46.7173 1613.45 50.9844 1625.76C72.7866 1635.72 97.909 1643.36 123.485 1643.36C184.625 1643.36 230.59 1602.06 230.59 1546.14C230.59 1439.97 85.5748 1469.84 85.5748 1384.07C85.5748 1355.63 103.59 1330.52 137.713 1330.52C181.784 1330.52 195.532 1364.16 203.587 1392.58L215.441 1391.16L206.92 1326.24C192.225 1323.4 178.957 1314.38 148.621 1314.38C85.1208 1314.38 49.1038 1355.63 49.1038 1403.5C49.1038 1499.68 192.225 1477.89 192.225 1565.09C192.225 1602.53 168.996 1627.17 132.512 1627.17C81.3336 1627.17 56.6911 1573.62 49.1038 1550.87L36.7695 1552.78ZM335.334 1419.13C310.691 1427.66 286.995 1433.34 264.726 1438.55V1447.09C296.476 1450.86 297.423 1451.34 297.423 1480.28V1592.12C297.423 1619.12 294.583 1621.51 262.833 1624.33V1635.71H369.937V1624.33C337.72 1621.49 335.346 1619.12 335.346 1592.12V1470.32C350.988 1457.5 369.937 1447.57 389.379 1447.57C422.555 1447.57 432.503 1469.84 432.503 1497.8V1592.1C432.503 1619.11 429.663 1621.49 397.913 1624.32V1635.69H505.017V1624.32C472.8 1621.48 470.427 1619.11 470.427 1592.1V1484.04C470.427 1479.79 469.947 1474.08 469.48 1470.77C487.482 1455.14 505.497 1447.57 522.552 1447.57C558.569 1447.57 567.57 1471.73 567.57 1499.68V1592.12C567.57 1619.12 564.73 1621.51 532.98 1624.33V1635.71H640.084V1624.33C607.867 1621.49 605.494 1619.12 605.494 1592.12V1484.05C605.494 1446.13 583.692 1420.06 544.367 1420.06C514.511 1420.06 485.601 1443.77 466.173 1457.5C457.172 1433.82 435.369 1420.06 411.194 1420.06C379.444 1420.06 352.428 1444.7 335.359 1455.14V1419.13H335.334ZM733.427 1419.13C708.785 1427.66 685.089 1433.34 662.82 1438.55V1447.09C694.57 1450.86 695.517 1451.34 695.517 1480.28V1592.12C695.517 1619.12 692.664 1621.51 660.914 1624.33V1635.71H768.018V1624.33C735.788 1621.49 733.427 1619.12 733.427 1592.12V1419.13ZM714.479 1305.87C700.731 1305.87 689.356 1317.7 689.356 1332.4C689.356 1347.09 700.731 1358.47 714.479 1358.47C728.694 1358.47 739.601 1347.09 739.601 1332.4C739.601 1317.7 728.694 1305.87 714.479 1305.87ZM795.994 1426.25L781.779 1439.49L783.672 1444.7H819.222V1583.09C819.222 1621.95 835.798 1641.93 867.081 1641.93C870.388 1641.93 876.549 1640.52 881.296 1638.16L921.113 1618.17L916.366 1607.25C906.898 1612.95 896.457 1616.75 887.456 1616.75C874.668 1616.75 857.133 1609.63 857.133 1572.18V1444.69H909.272C913.059 1441.37 915.432 1436.63 915.432 1432.86C915.374 1430.45 914.542 1428.12 913.059 1426.22H857.133V1363.65H850.493L819.222 1395.87V1426.22H795.994V1426.25ZM1004.52 1292.59C979.879 1301.13 956.17 1306.81 933.914 1312.02V1320.56C965.664 1324.33 966.611 1324.81 966.611 1353.72V1592.12C966.611 1619.12 963.771 1621.51 932.021 1624.33V1635.71H1039.12V1624.33C1006.91 1621.49 1004.53 1619.12 1004.53 1592.12V1468.88C1010.8 1461.89 1018.47 1456.29 1027.04 1452.46C1035.62 1448.62 1044.9 1446.63 1054.29 1446.61C1089.84 1446.61 1102.16 1469.36 1102.16 1504.44V1592.12C1102.16 1619.12 1099.3 1621.51 1067.57 1624.33V1635.71H1174.67V1624.33C1142.44 1621.49 1140.08 1619.12 1140.08 1592.12V1489.75C1140.08 1449.45 1118.76 1420.06 1073.26 1420.06C1047.67 1420.06 1021.12 1436.65 1004.55 1454.18V1292.59H1004.52ZM1199.29 1571.24C1199.29 1589.73 1202.13 1616.76 1204.97 1623.85C1214.45 1631.45 1236.72 1641.95 1261.37 1641.95C1297.85 1641.95 1339.09 1620.05 1339.09 1575.53C1339.09 1542.83 1315.86 1524.34 1280.32 1509.64C1259.48 1501.13 1238.63 1487.37 1238.63 1467.46C1238.63 1451.84 1248.57 1434.77 1270.38 1434.77C1288.87 1434.77 1304.05 1445.69 1318.74 1477.9L1330.57 1475.06C1329.63 1466.53 1324.41 1439.5 1319.67 1428.61C1306.85 1422.9 1292.95 1419.99 1278.91 1420.07C1237.21 1420.07 1206.88 1449 1206.88 1483.57C1206.88 1515.34 1233.89 1531.94 1265.16 1546.14C1291.71 1557.99 1302.61 1571.73 1302.61 1591.16C1302.61 1614.87 1286.04 1627.17 1268.48 1627.17C1240.05 1627.17 1218.25 1596.37 1210.66 1568.41L1199.29 1571.24ZM1483.65 1627.17C1441.95 1627.17 1415.4 1580.26 1415.4 1519.14C1415.4 1467.94 1439.57 1434.75 1472.28 1434.75C1516.35 1434.75 1539.58 1484.53 1539.58 1538.08C1539.58 1603.49 1513.96 1627.17 1483.65 1627.17ZM1478.42 1641.95C1527.24 1641.95 1583.65 1603.01 1583.65 1527.66C1583.65 1467.01 1539.58 1420.07 1477.94 1420.07C1433.9 1420.07 1371.32 1455.64 1371.32 1536.67C1371.32 1586.9 1410.19 1641.95 1478.42 1641.95ZM1690.27 1418.65C1665.63 1427.18 1641.93 1432.89 1619.65 1438.07V1446.61C1651.41 1450.41 1652.35 1450.86 1652.35 1479.8V1592.12C1652.35 1619.12 1649.51 1621.51 1617.74 1624.33V1635.71H1724.88V1624.33C1692.63 1621.49 1690.27 1619.12 1690.27 1592.12V1470.32C1704.97 1457.5 1723.46 1447.57 1742.41 1447.57C1778.43 1447.57 1787.43 1471.73 1787.43 1499.68V1592.12C1787.43 1619.12 1784.59 1621.51 1752.82 1624.33V1635.71H1859.96V1624.33C1827.71 1621.49 1825.35 1619.12 1825.35 1592.12V1484.53C1825.35 1446.61 1803.54 1420.06 1763.75 1420.06C1740.52 1420.06 1712.55 1438.55 1690.28 1455.62V1418.65H1690.27ZM1953.78 1419.13C1929.14 1427.66 1905.44 1433.34 1883.16 1438.55V1447.09C1914.92 1450.86 1915.85 1451.34 1915.85 1480.28V1592.12C1915.85 1619.12 1913.01 1621.51 1881.25 1624.33V1635.71H1988.38V1624.33C1956.14 1621.49 1953.78 1619.12 1953.78 1592.12V1419.13ZM1934.83 1305.87C1921.07 1305.87 1909.69 1317.7 1909.69 1332.4C1909.69 1347.09 1921.07 1358.47 1934.83 1358.47C1949.04 1358.47 1959.94 1347.09 1959.94 1332.4C1959.94 1317.7 1949.03 1305.87 1934.83 1305.87ZM2203.03 1618.19L2198.78 1607.27C2189.79 1611.55 2181.74 1613.45 2177.93 1613.45C2170.81 1613.45 2164.67 1605.4 2164.67 1587.38V1478.84C2164.67 1445.67 2148.08 1420.07 2107.79 1420.07C2073.67 1426.71 2044.77 1444.72 2033.4 1453.74C2022.96 1461.8 2016.81 1467.48 2016.81 1474.58C2016.81 1483.12 2030.08 1490.69 2037.65 1490.69C2040.29 1490.71 2042.85 1489.84 2044.92 1488.2C2046.99 1486.57 2048.44 1484.27 2049.03 1481.7C2054.72 1460.84 2064.2 1440.94 2087.89 1440.94C2113.5 1440.94 2127.7 1457.05 2127.7 1486.89V1503.48C2113.01 1513.44 2073.67 1527.64 2049.99 1537.12C2024.85 1547.57 2013 1563.67 2013 1585.94C2013 1612.49 2035.75 1641.95 2070.83 1641.95C2081.25 1641.95 2107.3 1623.37 2127.7 1610.13C2130.54 1622.44 2137.66 1638.63 2154.23 1641.95L2203.03 1618.19ZM2127.7 1596.37C2114.43 1606.33 2096.9 1614.87 2085.53 1614.87C2070.83 1614.87 2053.76 1603.01 2053.76 1577.42C2053.76 1557.51 2064.68 1548.5 2078.9 1540.92C2094.05 1532.87 2110.63 1526.23 2127.72 1519.14V1596.37H2127.7ZM2293.57 1418.65C2268.93 1427.18 2245.24 1432.89 2222.95 1438.07V1446.61C2254.72 1450.41 2255.65 1450.86 2255.65 1479.8V1592.12C2255.65 1619.12 2252.81 1621.51 2221.05 1624.33V1635.71H2328.18V1624.33C2295.93 1621.49 2293.57 1619.12 2293.57 1592.12V1470.32C2308.27 1457.5 2326.74 1447.57 2345.71 1447.57C2381.73 1447.57 2390.73 1471.73 2390.73 1499.68V1592.12C2390.73 1619.12 2387.89 1621.51 2356.13 1624.33V1635.71H2463.23V1624.33C2431.01 1621.49 2428.65 1619.12 2428.65 1592.12V1484.53C2428.65 1446.61 2406.84 1420.06 2367.05 1420.06C2343.82 1420.06 2315.86 1438.55 2293.59 1455.62V1418.65H2293.57ZM305.957 1865.57C305.957 1812.95 309.744 1809.65 349.548 1806.81V1795.91H221.589V1806.81C261.406 1809.65 265.193 1812.97 265.193 1865.57V2039.98C265.193 2092.57 261.406 2095.89 221.589 2098.74V2109.64H349.548V2098.74C309.744 2095.88 305.957 2092.55 305.957 2039.98V1865.57ZM454.772 1892.57C430.13 1901.11 406.421 1906.81 384.152 1912V1920.54C415.902 1924.34 416.848 1924.82 416.848 1953.73V2066.04C416.848 2093.05 414.008 2095.43 382.258 2098.26V2109.64H489.362V2098.26C457.146 2095.42 454.772 2093.05 454.772 2066.04V1944.25C469.467 1931.46 487.949 1921.5 506.911 1921.5C542.928 1921.5 551.929 1945.66 551.929 1973.64V2066.04C551.929 2093.05 549.088 2095.43 517.338 2098.26V2109.64H624.443V2098.26C592.226 2095.42 589.852 2093.05 589.852 2066.04V1958.46C589.852 1920.54 568.05 1894.01 528.246 1894.01C505.017 1894.01 477.067 1912.48 454.785 1929.55V1892.57H454.772ZM649.072 2045.19C649.072 2063.66 651.913 2090.69 654.766 2097.78C664.234 2105.38 686.516 2115.87 711.158 2115.87C747.642 2115.87 788.886 2094.01 788.886 2049.46C788.886 2016.76 765.657 1998.26 730.12 1983.57C709.278 1975.06 688.422 1961.3 688.422 1941.39C688.422 1925.76 698.37 1908.71 720.172 1908.71C738.654 1908.71 753.816 1919.6 768.511 1951.82L780.365 1948.98C779.418 1940.45 774.204 1913.44 769.47 1902.52C756.639 1896.83 742.744 1893.93 728.706 1894.01C686.996 1894.01 656.672 1922.92 656.672 1957.51C656.672 1989.25 683.688 2005.85 714.971 2020.05C741.508 2031.91 752.415 2045.64 752.415 2065.07C752.415 2088.78 735.827 2101.09 718.292 2101.09C689.862 2101.09 668.06 2070.29 660.473 2042.32L649.072 2045.19ZM823.956 1900.17L809.729 1913.44L811.622 1918.63H847.159V2057.02C847.159 2095.88 863.748 2115.86 895.018 2115.86C898.338 2115.86 904.499 2114.45 909.246 2112.09L949.05 2092.1L944.303 2081.18C934.822 2086.87 924.394 2090.67 915.393 2090.67C902.605 2090.67 885.07 2083.55 885.07 2046.11V1918.62H937.208C940.996 1915.3 943.369 1910.56 943.369 1906.79C943.311 1904.38 942.479 1902.05 940.996 1900.15H885.07V1837.58H878.442L847.159 1869.8V1900.15H823.956V1900.17ZM1039.11 1893.05C1014.47 1901.59 990.774 1907.27 968.505 1912.48V1921.02C1000.25 1924.82 1001.2 1925.27 1001.2 1954.21V2066.04C1001.2 2093.05 998.361 2095.43 966.611 2098.26V2109.64H1073.72V2098.26C1041.49 2095.42 1039.12 2093.05 1039.12 2066.04V1893.05H1039.11ZM1020.15 1779.8C1006.4 1779.8 995.028 1791.63 995.028 1806.33C995.028 1821.02 1006.4 1832.39 1020.15 1832.39C1034.36 1832.39 1045.27 1821.02 1045.27 1806.33C1045.27 1791.63 1034.36 1779.8 1020.15 1779.8ZM1101.67 1900.17L1087.45 1913.44L1089.34 1918.63H1124.89V2057.02C1124.89 2095.88 1141.48 2115.86 1172.75 2115.86C1176.07 2115.86 1182.23 2114.45 1186.97 2112.09L1226.77 2092.1L1222.04 2081.18C1212.57 2086.87 1202.13 2090.67 1193.13 2090.67C1180.34 2090.67 1162.8 2083.55 1162.8 2046.11V1918.62H1214.94C1218.73 1915.3 1221.1 1910.56 1221.1 1906.79C1221.05 1904.38 1220.21 1902.05 1218.73 1900.15H1162.8V1837.58H1156.16L1124.88 1869.8V1900.15H1101.67V1900.17ZM1410.67 2063.18C1390.76 2080.25 1372.29 2087.82 1355.7 2087.82C1333.89 2087.82 1313.05 2077.41 1313.05 2032.38V1896.37C1294.55 1899.69 1259.49 1904.43 1244.8 1905.39V1915.32L1259.97 1917.71C1270.87 1919.12 1275.12 1923.39 1275.12 1940.94V2049.46C1275.12 2097.79 1301.19 2115.87 1335.8 2115.87C1364.21 2115.87 1392.19 2092.11 1410.67 2078.35V2112.55L1413.51 2115.87C1428.2 2110.66 1463.29 2101.1 1483.65 2098.75V2087.83L1462.32 2086.42C1452.35 2085.94 1448.58 2084.06 1448.58 2064.63V1896.37C1430.57 1899.69 1394.55 1904.43 1372.28 1905.39V1915.32L1395.48 1918.19C1405.92 1919.12 1410.66 1923.38 1410.66 1940.94V2063.18H1410.67ZM1512.55 1900.17L1498.33 1913.44L1500.23 1918.63H1535.76V2057.02C1535.76 2095.88 1552.35 2115.86 1583.63 2115.86C1586.93 2115.86 1593.1 2114.45 1597.85 2112.09L1637.64 2092.1L1632.91 2081.18C1623.44 2086.87 1613 2090.67 1604 2090.67C1591.21 2090.67 1573.67 2083.55 1573.67 2046.11V1918.62H1625.81C1629.59 1915.3 1631.97 1910.56 1631.97 1906.79C1631.91 1904.38 1631.07 1902.05 1629.59 1900.15H1573.67V1837.58H1567.03L1535.75 1869.8V1900.15H1512.55V1900.17ZM1727.72 1893.05C1703.07 1901.59 1679.38 1907.27 1657.1 1912.48V1921.02C1688.86 1924.82 1689.79 1925.27 1689.79 1954.21V2066.04C1689.79 2093.05 1686.95 2095.43 1655.21 2098.26V2109.64H1762.32V2098.26C1730.1 2095.42 1727.72 2093.05 1727.72 2066.04V1893.05ZM1708.77 1779.8C1695.01 1779.8 1683.63 1791.63 1683.63 1806.33C1683.63 1821.02 1695.01 1832.39 1708.77 1832.39C1722.98 1832.39 1733.88 1821.02 1733.88 1806.33C1733.88 1791.63 1722.98 1779.8 1708.77 1779.8ZM1899.75 2101.1C1858.05 2101.1 1831.5 2054.19 1831.5 1993.06C1831.5 1941.87 1855.66 1908.71 1888.37 1908.71C1932.44 1908.71 1955.67 1958.46 1955.67 2012.01C1955.67 2077.42 1930.08 2101.1 1899.75 2101.1ZM1894.52 2115.87C1943.34 2115.87 1999.74 2076.94 1999.74 2001.58C1999.74 1940.94 1955.67 1894.03 1894.07 1894.03C1849.99 1894.03 1787.42 1929.56 1787.42 2010.6C1787.42 2060.83 1826.29 2115.87 1894.52 2115.87ZM2106.37 1892.57C2081.73 1901.11 2058.03 1906.81 2035.75 1912V1920.54C2067.51 1924.34 2068.44 1924.82 2068.44 1953.73V2066.04C2068.44 2093.05 2065.6 2095.43 2033.87 2098.26V2109.64H2140.97V2098.26C2108.75 2095.42 2106.37 2093.05 2106.37 2066.04V1944.25C2121.06 1931.46 2139.56 1921.5 2158.51 1921.5C2194.52 1921.5 2203.52 1945.66 2203.52 1973.64V2066.04C2203.52 2093.05 2200.68 2095.43 2168.95 2098.26V2109.64H2276.05V2098.26C2243.83 2095.42 2241.45 2093.05 2241.45 2066.04V1958.46C2241.45 1920.54 2219.63 1894.01 2179.84 1894.01C2156.61 1894.01 2128.65 1912.48 2106.38 1929.55V1892.57H2106.37Z" fill="white"></path>
  <path fill-rule="evenodd" clip-rule="evenodd" d="M1664.14 523.512C1762.16 760.171 1649.79 1031.51 1413.12 1129.54C1176.46 1227.56 905.121 1115.18 807.082 878.507C709.057 641.848 821.453 370.507 1058.11 272.482C1294.77 174.456 1566.1 286.839 1664.14 523.512ZM1462.5 749.354C1469.27 749.211 1524.05 749.873 1558.78 809.508C1607.67 893.47 1666.03 848.026 1667.21 847.108L1667.22 847.094C1653.26 900.763 1578.1 913.655 1541.6 878.222C1493.01 831.051 1432.82 827.497 1430.11 827.367L1491.21 920.62L1559.54 1024.91L1362.01 895.484L1361.83 895.601C1366.6 900.128 1405.07 939.387 1387.41 1006.26C1362.36 1101.16 1437.52 1109.51 1437.52 1109.51C1389.68 1137.6 1327.43 1093.57 1326.66 1042.7C1325.65 974.924 1285.52 929.815 1283.8 927.909H1283.77L1235.6 1159.11L1187.43 927.909L1187.24 927.87C1187.4 934.407 1186.88 989.399 1127.09 1024.22C1042.26 1073.6 1089.51 1132.66 1089.51 1132.66C1035.83 1118.69 1022.95 1043.53 1058.38 1007.02C1105.83 958.141 1109.14 897.534 1109.24 895.497L911.697 1024.92L1041.12 827.38C1041.09 827.321 1041.06 827.265 1041.02 827.212C1036.63 831.829 997.362 870.531 930.334 852.84C835.435 827.782 827.082 902.942 827.082 902.942C798.99 855.11 843.022 792.855 893.889 792.089C961.994 791.078 1007.19 750.573 1008.71 749.198V749.16L777.512 700.99L1008.71 652.833C1008.71 652.784 1008.72 652.736 1008.74 652.69C1002.24 652.833 947.208 652.353 912.371 592.537C862.995 507.714 803.944 554.963 803.944 554.963C817.887 501.281 893.046 488.402 929.556 523.823C978.478 571.305 1039.14 574.586 1041.08 574.677L1041.12 574.612L1017.17 538.038L911.684 377.031L1109.27 506.482L1109.34 506.43C1104.64 501.93 1066.09 462.67 1083.75 395.759C1108.8 300.86 1033.64 292.52 1033.64 292.52C1081.47 264.428 1143.73 308.46 1144.49 359.327C1145.49 426.952 1185.44 471.996 1187.34 474.11L1187.45 474.084L1235.62 242.885L1283.79 474.097L1283.92 474.123C1283.77 467.365 1284.42 412.555 1344.08 377.822C1428.89 328.433 1381.64 269.382 1381.64 269.382C1435.31 283.35 1448.2 358.497 1412.77 395.007C1365.7 443.514 1362.06 503.564 1361.9 506.469C1361.94 506.476 1361.98 506.494 1362.01 506.521L1559.59 377.07L1430.12 574.651L1430.2 574.755C1434.83 569.891 1474.08 531.566 1540.82 549.192C1635.71 574.249 1644.07 499.09 1644.07 499.09C1672.17 546.922 1628.15 609.164 1577.28 609.929C1509.86 610.928 1464.94 650.602 1462.5 652.768L1462.52 652.846L1693.72 701.003L1462.52 749.173L1462.5 749.354Z" fill="white"></path>
</svg>
