<?xml version="1.0" encoding="UTF-8"?>
<svg xmlns="http://www.w3.org/2000/svg" width="2500" height="2500" viewBox="0 0 2500 2500" fill="none">
  <path fill-rule="evenodd" clip-rule="evenodd" d="M2451.34 1255.99H2118.33V1594H2451.34V1255.99ZM2106.23 1244.02V906.003H1773.41V1244.02H2106.23ZM1416.39 1244.02V906.003H1083.6V1244.02H1416.39ZM726.58 1244.02V906.003H393.776V1244.02H726.58ZM48.6504 1255.99V1594H381.675V1255.99H48.6504ZM738.681 1255.99V1594H1071.5V1255.99H738.681ZM1428.5 1255.99V1594H1761.31V1255.99H1428.5ZM2068.88 1084.66C2068.88 1150.82 2013.85 1204.44 1945.97 1204.44C1878.09 1204.44 1823.04 1150.81 1823.03 1084.66C1823.03 1018.52 1878.07 964.899 1945.97 964.899C2013.87 964.899 2068.88 1018.52 2068.88 1084.66ZM1721.2 1414.51C1721.2 1480.64 1666.17 1534.27 1598.29 1534.27C1530.41 1534.27 1475.38 1480.64 1475.38 1414.51C1475.38 1348.38 1530.39 1294.75 1598.29 1294.75C1666.19 1294.75 1721.2 1348.38 1721.2 1414.51ZM706.839 1202.78H620.473L605.856 1178.26H518.103L503.473 1202.78H417.12L561.98 959.866L706.839 1202.78ZM1139.2 955.405H1368.74V1024.49H1301.89V1205.01H1206.06V1024.49H1139.2V955.405ZM793.762 1289.7H1023.3V1358.79H956.455V1539.32H860.622V1358.79H793.762V1289.7ZM346.539 1532.62V1289.7H258.876V1378.84L109.568 1291.93V1534.85H197.231V1445.7L346.539 1532.62ZM2339.69 1408.57L2430.34 1534.85H2320.37L2263.91 1470.32V1534.85H2167.34V1289.7H2263.91V1353.82L2312.95 1289.7H2412.51L2339.69 1408.57Z" fill="white"></path>
  <path fill-rule="evenodd" clip-rule="evenodd" d="M1714.55 1084.66C1714.55 1150.82 1659.49 1204.44 1591.61 1204.44C1523.71 1204.44 1468.7 1150.81 1468.7 1084.66C1468.7 1018.52 1523.71 964.899 1591.61 964.899C1659.51 964.899 1714.55 1018.52 1714.55 1084.66ZM245.658 1133.53C256.587 1128.58 265.54 1120.11 271.082 1109.47L334.633 1136.07C314.881 1176.49 272.586 1204.44 223.586 1204.44C155.703 1204.44 100.672 1150.82 100.672 1084.66C100.672 1018.52 155.703 964.899 223.586 964.899C272.599 964.899 314.893 992.835 334.633 1033.26L271.082 1059.86C265.525 1049.25 256.571 1040.8 245.649 1035.87C234.727 1030.94 222.468 1029.81 210.83 1032.66C199.191 1035.52 188.846 1042.19 181.446 1051.62C174.047 1061.04 170.019 1072.68 170.008 1084.66C169.993 1096.66 174.005 1108.31 181.402 1117.76C188.799 1127.2 199.153 1133.89 210.803 1136.75C222.454 1139.61 234.728 1138.48 245.658 1133.53ZM2402.83 1199.63V956.702H2315.18V1045.86L2165.85 958.932V1201.86H2253.52V1112.7L2402.83 1199.63ZM473.579 1530.39V1294.15H647.412V1358.04H554.186V1384.79H647.412V1453.13H554.186V1475.41H647.412V1530.39H473.579ZM1290.01 1385.21L1324.19 1294.15H1399.94L1314.51 1523.7L1255.08 1461.3L1195.66 1523.7L1110.23 1294.15H1185.99L1220.17 1385.21L1255.08 1323.14L1290.01 1385.21ZM869.532 1142.61H917.573L947.533 1200.55H1036.69L975.923 1103.34C1019.61 1072.03 1027.02 971.747 938.622 958.738C935.966 958.348 931.225 958.446 925.057 958.574C921.377 958.651 917.188 958.738 912.631 958.738H793.763V1200.56H869.532V1142.61ZM1908.07 1475.41H1956.1L1986.07 1533.36H2075.21L2014.46 1436.14C2058.13 1404.83 2065.55 1304.55 1977.15 1291.56C1974.5 1291.17 1969.75 1291.26 1963.58 1291.39C1959.9 1291.47 1955.71 1291.56 1951.16 1291.56H1832.3V1533.38H1908.07V1475.41ZM1896.23 1063.9C1893.59 1070.5 1892.28 1077.55 1892.39 1084.66C1892.61 1098.73 1898.35 1112.15 1908.37 1122.02C1918.4 1131.89 1931.9 1137.42 1945.97 1137.43C1960.04 1137.43 1973.55 1131.9 1983.57 1122.03C1993.6 1112.16 1999.34 1098.74 1999.56 1084.67C1999.67 1077.57 1998.37 1070.51 1995.73 1063.91C1993.09 1057.31 1989.16 1051.31 1984.17 1046.24C1979.18 1041.17 1973.24 1037.15 1966.68 1034.41C1960.13 1031.66 1953.09 1030.24 1945.98 1030.24C1938.88 1030.24 1931.84 1031.66 1925.28 1034.4C1918.73 1037.14 1912.78 1041.17 1907.79 1046.23C1902.81 1051.3 1898.88 1057.3 1896.23 1063.9ZM1548.56 1393.75C1545.92 1400.34 1544.62 1407.4 1544.73 1414.51C1544.94 1428.58 1550.68 1441.99 1560.71 1451.86C1570.73 1461.74 1584.23 1467.27 1598.3 1467.27C1612.37 1467.27 1625.88 1461.74 1635.9 1451.87C1645.93 1442 1651.67 1428.59 1651.89 1414.52C1652.01 1407.41 1650.7 1400.36 1648.06 1393.76C1645.42 1387.16 1641.49 1381.15 1636.5 1376.09C1631.52 1371.02 1625.57 1367 1619.02 1364.25C1612.46 1361.51 1605.42 1360.09 1598.32 1360.09C1591.21 1360.09 1584.17 1361.5 1577.62 1364.25C1571.06 1366.99 1565.11 1371.01 1560.13 1376.08C1555.14 1381.14 1551.21 1387.15 1548.56 1393.75ZM561.98 1104.67L552.655 1120.32H571.306L561.98 1104.67ZM1541.87 1063.9C1539.23 1070.5 1537.92 1077.55 1538.03 1084.66C1538.25 1098.73 1543.99 1112.15 1554.01 1122.02C1564.04 1131.89 1577.54 1137.42 1591.61 1137.43C1605.68 1137.43 1619.19 1131.9 1629.21 1122.03C1639.24 1112.16 1644.98 1098.74 1645.2 1084.67C1645.31 1077.57 1644.01 1070.51 1641.37 1063.91C1638.73 1057.31 1634.8 1051.31 1629.81 1046.24C1624.82 1041.17 1618.88 1037.15 1612.32 1034.41C1605.77 1031.66 1598.73 1030.24 1591.62 1030.24C1584.52 1030.24 1577.48 1031.66 1570.92 1034.4C1564.37 1037.14 1558.42 1041.17 1553.43 1046.23C1548.45 1051.3 1544.52 1057.3 1541.87 1063.9ZM870.271 1078.72V1014.46L898.507 1014.47C905.938 1014.47 932.682 1017.06 932.682 1045.3C932.682 1073.52 907.43 1078.72 898.507 1078.72H870.271ZM1908.81 1411.53V1347.27H1937.06C1944.49 1347.27 1971.24 1349.87 1971.24 1378.1C1971.24 1406.34 1945.98 1411.53 1937.06 1411.53H1908.81Z" fill="white"></path>
  <rect x="56.5" y="913.5" width="2387" height="673" stroke="white" stroke-width="15"></rect>
</svg>
