<?xml version="1.0" encoding="UTF-8"?>
<svg xmlns="http://www.w3.org/2000/svg" width="2500" height="2500" viewBox="0 0 2500 2500" fill="none">
  <g clip-path="url(#clip0)">
    <path d="M2453.77 1101.48C2428.56 1101.48 2407.28 1120.85 2407.28 1147.1C2407.28 1173.6 2428.59 1192.99 2453.77 1192.99C2478.69 1192.99 2500 1173.6 2500 1147.1C2500 1120.85 2478.69 1101.48 2453.77 1101.48ZM2453.77 1185.38C2432.82 1185.38 2416.47 1169.14 2416.47 1147.12C2416.47 1125.44 2432.82 1109.12 2453.77 1109.12C2474.46 1109.12 2490.78 1125.44 2490.78 1147.12C2490.81 1169.14 2474.46 1185.38 2453.77 1185.38Z" fill="white"></path>
    <path d="M2474.83 1135.85C2474.83 1125.44 2468.62 1120.85 2456.16 1120.85H2436.09V1173.62H2444.07V1150.73H2453.26L2467.19 1173.62H2476.12L2461.15 1150.39C2468.88 1149.41 2474.83 1145.29 2474.83 1135.85ZM2444.07 1143.97V1127.62H2454.98C2460.53 1127.62 2466.45 1128.83 2466.45 1135.37C2466.45 1143.46 2460.42 1143.97 2453.62 1143.97H2444.07ZM529.162 1132.18L523.214 1106.02H405.484V1446.18H529.162V1274.92C529.162 1242.81 550.56 1189.3 629.046 1196.43V1092.94C607.677 1094.12 558.905 1095.31 529.162 1132.18ZM1345.06 1106.02L1259.42 1296.32L1173.8 1106.02H1045.36L1195.22 1437.84L1141.69 1557.99H1270.13L1472.32 1106.02H1345.06ZM1851.73 975.182H1975.43V1446.18H1851.73V975.182Z" fill="white"></path>
    <path d="M911.528 1131.42C884.774 1107.23 849.591 1099.34 808.684 1099.34C785.16 1099.34 761.867 1103.97 740.134 1112.97C718.4 1121.98 698.653 1135.17 682.019 1151.81C665.385 1168.44 652.191 1188.19 643.188 1209.92C634.186 1231.65 629.553 1254.95 629.553 1278.47C629.553 1301.99 634.186 1325.29 643.188 1347.02C652.191 1368.75 665.385 1388.5 682.019 1405.14C698.653 1421.77 718.4 1434.96 740.134 1443.97C761.867 1452.97 785.16 1457.6 808.684 1457.6C849.337 1457.6 890.722 1440.24 916.913 1414.07V1446.18H1026.33V1106.02H916.913L911.528 1131.42ZM830.054 1361.75C786.807 1361.75 751.737 1324.48 751.737 1278.47C751.737 1232.46 786.807 1195.19 830.054 1195.19C873.328 1195.19 908.399 1232.46 908.399 1278.47C908.399 1324.48 873.356 1361.75 830.054 1361.75ZM2274.55 1131.42C2247.8 1107.23 2212.61 1099.34 2171.68 1099.34C2124.17 1099.34 2078.61 1118.21 2045.01 1151.81C2011.42 1185.4 1992.55 1230.96 1992.55 1278.47C1992.55 1325.98 2011.42 1371.54 2045.01 1405.14C2078.61 1438.73 2124.17 1457.6 2171.68 1457.6C2212.36 1457.6 2253.74 1440.24 2279.93 1414.07V1446.18H2389.35V1106.02H2279.93L2274.55 1131.42ZM2193.07 1361.75C2149.8 1361.75 2114.73 1324.48 2114.73 1278.47C2114.73 1232.46 2149.8 1195.19 2193.07 1195.19C2236.32 1195.19 2271.39 1232.46 2271.39 1278.47C2271.39 1324.48 2236.32 1361.75 2193.07 1361.75ZM1637.64 1097.79C1504.43 1097.79 1440.86 1177.63 1440.86 1276.07C1440.86 1374.55 1504.46 1454.36 1637.64 1454.36C1770.87 1454.36 1834.42 1374.55 1834.42 1276.07C1834.42 1177.63 1770.84 1097.79 1637.64 1097.79ZM1637.64 1360.2C1584.13 1360.2 1560.87 1322.53 1560.87 1276.1C1560.87 1229.67 1584.1 1192.01 1637.64 1192.01C1691.17 1192.01 1714.4 1229.64 1714.4 1276.1C1714.4 1322.56 1691.15 1360.2 1637.64 1360.2ZM266.301 1063.08C309.942 1063.08 350.735 1078.65 374.698 1097.56L374.67 965.428C340.646 949.933 303.686 941.943 266.301 942C121.845 942 0 1059.08 0 1203.54C0 1347.99 121.845 1465.07 266.301 1465.07C303.686 1465.13 340.645 1457.14 374.67 1441.65L374.698 1309.48C350.735 1328.4 309.942 1343.96 266.301 1343.96C247.858 1343.96 229.596 1340.33 212.557 1333.27C195.519 1326.21 180.037 1315.87 166.996 1302.83C153.955 1289.79 143.611 1274.3 136.553 1257.27C129.495 1240.23 125.863 1221.96 125.863 1203.52C125.863 1185.08 129.495 1166.82 136.553 1149.78C143.611 1132.74 153.955 1117.26 166.996 1104.22C180.037 1091.18 195.519 1080.83 212.557 1073.77C229.596 1066.72 247.858 1063.08 266.301 1063.08Z" fill="white"></path>
  </g>
  <defs>
    <clipPath id="clip0">
      <rect width="2500" height="2500" fill="white"></rect>
    </clipPath>
  </defs>
</svg>
