<?xml version="1.0" encoding="UTF-8"?>
<svg xmlns="http://www.w3.org/2000/svg" width="2500" height="2500" viewBox="0 0 2500 2500" fill="none">
  <path d="M229.897 1332.62C300.448 1332.62 357.641 1275.42 357.641 1204.87C357.641 1134.32 300.448 1077.13 229.897 1077.13C159.345 1077.13 102.152 1134.32 102.152 1204.87C102.152 1275.42 159.345 1332.62 229.897 1332.62Z" fill="white"></path>
  <path d="M2313.61 1420.56H2319.16L2326.57 1442.77L2333.98 1420.56H2339.53V1447.4H2335.83V1431.67V1428.89V1425.19L2328.42 1447.4H2324.72L2317.31 1425.19V1447.4H2313.61V1420.56ZM2310.83 1420.56V1423.33H2301.58V1446.48H2297.87V1423.33H2288.62V1420.56H2310.83ZM2065.53 1478.88V1405.75H2048.86V1493.69H2110.89V1478.88H2065.53ZM1915.57 1456.66H1959.07V1441.85H1915.57V1420.56H1964.63V1405.75H1898.9V1493.69H1964.63V1478.88H1914.64L1915.57 1456.66ZM1795.23 1406.67V1464.99L1749.87 1406.67H1735.06V1494.61H1751.72V1434.44L1798 1494.61H1811.89V1406.67H1795.23ZM1630.46 1406.67V1464.99L1585.1 1406.67H1570.29V1494.61H1586.95V1434.44L1634.16 1494.61H1648.04V1406.67H1630.46ZM1457.35 1458.51L1443.47 1426.11L1429.58 1458.51H1457.35ZM1488.83 1492.76L1472.16 1493.69L1462.91 1472.4H1423.1L1413.85 1493.69H1397.18L1436.06 1404.82H1450.87L1488.83 1492.76ZM1300.91 1441.85H1261.11V1405.75H1244.45V1493.69H1261.11V1456.66H1300.91V1493.69H1317.58V1405.75H1300.91V1441.85ZM1151.88 1468.69L1162.99 1479.8L1162.06 1480.73C1152.8 1489.98 1142.62 1496.46 1126.88 1496.46C1100.97 1496.46 1082.45 1476.1 1082.45 1451.1C1082.45 1426.11 1100.97 1405.75 1127.81 1405.75C1143.55 1405.75 1153.73 1411.3 1162.06 1419.63V1420.56L1151.88 1432.59H1150.95C1144.47 1426.11 1137.07 1422.41 1126.88 1422.41C1110.22 1422.41 1099.11 1435.37 1099.11 1452.03C1099.11 1468.69 1111.15 1482.58 1126.88 1482.58C1137.07 1479.8 1143.55 1476.1 1151.88 1468.69ZM2338.6 1087.31L2275.66 1267.82L2216.41 1087.31H2156.24L2247.89 1332.62L2246.96 1334.47C2246.96 1334.47 2228.45 1384.46 2211.78 1396.49C2198.83 1402.97 2169.2 1402.97 2157.17 1402.04V1448.33C2177.53 1448.33 2223.82 1449.25 2238.63 1440C2257.14 1427.96 2261.77 1423.33 2274.73 1396.49C2288.62 1367.79 2396.92 1087.31 2396.92 1087.31H2338.6ZM2043.31 1128.04V1087.31H1986.84V1334.47H2043.31V1240.05C2043.31 1223.39 2045.16 1208.58 2049.79 1197.47C2066.45 1153.03 2114.59 1140.08 2138.66 1136.37L2119.22 1089.16C2099.78 1091.94 2064.6 1101.2 2043.31 1128.04ZM1069.49 1290.96C1025.98 1290.96 995.437 1255.79 995.437 1211.35C995.437 1167.85 1025.06 1132.67 1066.71 1132.67C1095.41 1132.67 1113.92 1145.63 1130.59 1163.22L1165.76 1125.26C1142.62 1100.27 1113.92 1082.68 1067.64 1082.68C993.586 1082.68 939.896 1141.93 939.896 1212.28C939.896 1282.63 994.512 1340.02 1067.64 1340.02C1115.78 1340.02 1144.47 1320.58 1168.54 1293.74L1134.29 1260.41C1115.78 1278 1096.34 1290.96 1069.49 1290.96ZM1888.72 1187.29C1887.8 1178.03 1885.94 1176.18 1882.24 1167.85C1879.46 1159.51 1874.84 1153.03 1869.28 1147.48C1863.73 1141.93 1857.25 1137.3 1849.84 1133.6C1842.44 1129.89 1834.11 1128.97 1824.85 1128.97C1807.26 1128.97 1793.38 1134.52 1781.34 1146.56C1770.23 1158.59 1762.83 1167.85 1760.98 1187.29H1888.72ZM1936.86 1164.14C1941.49 1179.88 1944.26 1197.47 1944.26 1215.06V1222.46C1944.26 1225.24 1944.26 1228.02 1943.34 1230.79H1761.9C1764.68 1251.16 1773.01 1266.89 1785.97 1277.08C1798.93 1288.18 1814.67 1293.74 1833.18 1293.74C1847.07 1293.74 1859.1 1290.96 1869.28 1286.33C1879.46 1281.7 1889.65 1274.3 1899.83 1264.12L1933.15 1293.74C1921.12 1307.62 1907.24 1318.73 1890.57 1327.06C1873.91 1335.39 1854.47 1340.02 1832.25 1340.02C1814.67 1340.02 1798 1337.25 1782.27 1330.77C1766.53 1324.29 1753.57 1315.96 1742.46 1304.85C1731.36 1293.74 1722.1 1279.85 1715.62 1264.12C1709.14 1248.38 1705.44 1230.79 1705.44 1212.28V1211.35C1705.44 1193.77 1708.21 1177.1 1714.69 1161.37C1720.25 1145.63 1728.58 1132.67 1739.69 1120.64C1750.79 1108.6 1762.83 1099.35 1777.64 1092.87C1792.45 1086.39 1808.19 1082.68 1826.7 1082.68C1846.14 1082.68 1863.73 1086.39 1878.54 1093.79C1893.35 1101.2 1905.38 1110.45 1915.57 1122.49C1924.82 1134.52 1932.23 1148.41 1936.86 1164.14ZM1573.99 1268.75L1507.34 1087.31H1446.24L1548.07 1336.32H1598.98L1699.88 1087.31H1640.64L1573.99 1268.75ZM1387.93 1211.35C1387.93 1200.24 1386.08 1190.06 1382.37 1180.81C1378.67 1171.55 1373.12 1163.22 1366.64 1155.81C1360.16 1148.41 1351.83 1142.85 1342.57 1139.15C1333.31 1134.52 1323.13 1132.67 1312.02 1132.67C1300.91 1132.67 1290.73 1134.52 1281.47 1139.15C1272.22 1142.85 1264.81 1149.33 1257.41 1155.81C1250.93 1163.22 1245.37 1171.55 1242.59 1180.81C1238.89 1190.06 1237.97 1200.24 1237.97 1211.35V1212.28C1237.97 1222.46 1239.82 1232.64 1243.52 1242.83C1247.22 1252.08 1252.78 1261.34 1259.26 1268.75C1265.74 1276.15 1274.07 1281.7 1283.32 1286.33C1292.58 1290.04 1302.76 1292.81 1313.87 1292.81C1325.91 1292.81 1336.09 1290.96 1345.35 1286.33C1354.6 1281.7 1362.01 1276.15 1368.49 1269.67C1374.97 1262.27 1379.6 1253.93 1383.3 1244.68C1386.08 1232.64 1387.93 1222.46 1387.93 1211.35ZM1435.14 1160.44C1441.62 1176.18 1444.39 1192.84 1444.39 1210.43V1211.35C1444.39 1228.94 1440.69 1245.6 1434.21 1260.41C1427.73 1276.15 1418.47 1290.04 1406.44 1301.14C1394.41 1313.18 1380.52 1322.43 1364.78 1328.91C1348.12 1335.39 1330.53 1339.1 1312.02 1339.1C1293.51 1339.1 1275.92 1335.39 1260.18 1328.91C1244.45 1322.43 1230.56 1313.18 1218.53 1302.07C1206.49 1290.04 1197.24 1277.08 1190.76 1261.34C1184.28 1245.6 1180.57 1228.94 1180.57 1211.35V1210.43C1180.57 1192.84 1184.28 1176.18 1190.76 1160.44C1197.24 1144.7 1206.49 1130.82 1218.53 1119.71C1230.56 1107.68 1244.45 1098.42 1260.18 1091.94C1275.92 1085.46 1293.51 1081.76 1312.95 1081.76C1332.39 1081.76 1349.05 1085.46 1365.71 1091.94C1381.45 1098.42 1395.33 1107.68 1407.37 1119.71C1419.4 1131.74 1428.66 1144.7 1435.14 1160.44ZM888.984 1212.28C881.578 1206.72 873.247 1202.1 863.99 1198.39C854.734 1194.69 845.477 1190.99 837.146 1188.21C829.74 1185.43 823.26 1183.58 816.781 1180.81C810.301 1178.95 803.821 1176.18 799.193 1173.4C793.638 1170.62 789.936 1167.85 787.159 1164.14C784.382 1160.44 782.53 1156.74 782.53 1153.03C782.53 1145.63 785.307 1140.08 791.787 1135.45C797.341 1130.82 806.598 1128.04 817.706 1128.04C827.889 1128.04 838.997 1129.89 851.031 1134.52C863.065 1138.22 875.099 1144.7 887.132 1151.18L909.349 1111.38C896.389 1103.05 881.578 1095.64 865.842 1091.01C850.105 1086.39 834.369 1083.61 818.632 1083.61C806.598 1083.61 794.564 1085.46 784.382 1089.16C773.273 1092.87 764.017 1097.49 756.611 1103.97C748.28 1110.45 742.726 1118.78 738.097 1127.12C733.469 1136.37 731.618 1146.56 731.618 1158.59V1159.51C731.618 1171.55 734.395 1181.73 739.023 1189.14C743.652 1197.47 750.131 1203.95 756.611 1209.5C764.017 1215.06 772.348 1219.68 781.605 1222.46C790.861 1226.16 800.118 1228.94 808.449 1231.72C815.855 1233.57 822.335 1236.35 829.74 1238.2C836.22 1240.05 842.7 1242.83 847.328 1244.68C852.882 1247.45 856.585 1250.23 859.362 1253.93C862.139 1257.64 863.99 1261.34 863.99 1265.97V1266.89C863.99 1275.23 860.288 1281.7 853.808 1286.33C847.328 1290.96 838.071 1293.74 825.112 1293.74C812.152 1293.74 799.193 1290.96 785.307 1286.33C771.422 1280.78 757.537 1273.37 744.577 1264.12L719.584 1302.07C735.32 1314.1 751.983 1323.36 770.496 1329.84C789.01 1336.32 806.598 1339.1 824.186 1339.1C836.364 1339.04 848.49 1337.49 860.288 1334.47C871.396 1330.77 881.578 1326.14 888.984 1319.66C897.315 1313.18 903.795 1304.85 908.423 1295.59C913.052 1285.41 915.829 1274.3 915.829 1261.34V1260.41C915.829 1249.31 913.052 1239.12 908.423 1231.72C901.943 1224.31 896.389 1216.91 888.984 1212.28ZM622.387 1334.47H678.854V1087.31H622.387V1334.47ZM589.988 1167.85C589.988 1260.41 518.711 1331.69 415.96 1331.69H316.912C337.277 1317.81 353.939 1300.22 365.973 1278.93H416.885C485.386 1278.93 530.744 1232.64 530.744 1167.85C530.744 1103.05 486.312 1055.84 416.885 1055.84H352.088V1103.97C342.831 1091.94 331.723 1081.76 318.763 1073.43C311.358 1067.87 303.026 1063.24 294.695 1059.54V1004H416.885C518.711 1004.93 589.988 1076.2 589.988 1167.85Z" fill="white"></path>
</svg>
