<?xml version="1.0" encoding="UTF-8"?>
<svg xmlns="http://www.w3.org/2000/svg" width="2500" height="2500" viewBox="0 0 2500 2500" fill="none">
  <path fill-rule="evenodd" clip-rule="evenodd" d="M2389.71 1044.22H819.443L699.148 1455.78H2269.41L2389.71 1044.22ZM768.796 1044.22H708.642L588.335 1455.78H651.653L768.796 1044.22ZM661.16 1044.22H604.171L487.028 1455.78H540.852L661.16 1044.22ZM556.688 1044.22H506.028L385.721 1455.78H439.545L556.688 1044.22ZM455.368 1044.22H411.051L290.743 1455.78H338.239L455.368 1044.22ZM363.568 1044.22H319.251L202.108 1455.78H243.261L363.568 1044.22ZM271.756 1044.22H230.602L110.295 1455.78H154.613L271.756 1044.22ZM1379.81 1075.88L1319.65 1132.87L1294.32 1224.67L1338.65 1284.81H1430.45L1408.28 1370.31H1322.81L1335.48 1325.98H1275.34L1259.48 1389.31L1284.81 1424.12H1427.28L1468.45 1386.14L1503.27 1256.32L1465.29 1205.68H1370.31L1392.47 1129.69H1474.78L1465.29 1164.53H1531.76L1544.41 1117.03L1515.95 1075.88H1379.81ZM1740.71 1075.88H1614.07L1566.58 1117.03L1490.62 1382.98L1519.11 1424.12H1642.57L1702.71 1373.47L1731.2 1272.15H1664.73L1639.4 1370.31H1563.41L1633.08 1129.69H1705.87L1690.05 1183.52H1756.55L1775.54 1123.36L1740.71 1075.88ZM2218.74 1075.88H2038.3L1952.81 1386.14L1965.48 1075.88H1857.84L1699.55 1424.12H1778.71L1810.35 1354.48H1880.01L1876.84 1424.12H2009.81L2050.97 1284.81H2136.44L2095.28 1424.12H2164.94L2199.76 1297.48L2177.6 1253.16L2221.9 1218.34L2253.57 1110.7L2218.74 1075.88ZM1268.99 1075.88L1253.16 1424.12H1180.35L1183.52 1354.48H1113.87L1079.05 1424.12H923.914L904.927 1253.16L857.431 1424.12H784.619L885.926 1075.88H968.245L987.233 1253.16L1037.89 1075.88H1107.54L1025.22 1360.81L1177.19 1075.88H1268.99ZM2231.41 1370.32C2215.78 1369.71 2201.85 1382.37 2202.91 1398.79C2201.85 1416.89 2215.78 1429.57 2231.41 1430.45C2248.56 1429.57 2262.48 1416.89 2263.07 1398.79C2262.48 1382.38 2248.56 1369.71 2231.41 1370.32Z" fill="white"></path>
  <path fill-rule="evenodd" clip-rule="evenodd" d="M2256.74 1398.79C2256.47 1413.96 2245.79 1424.57 2231.41 1424.12C2218.57 1424.57 2207.84 1413.96 2209.27 1398.79C2207.86 1385.39 2218.57 1374.7 2231.41 1373.49C2245.79 1374.7 2256.47 1385.39 2256.74 1398.79ZM2221.92 1417.78H2225.08H2225.11V1401.95H2231.44L2240.93 1417.76H2247.26L2237.77 1401.95C2242.16 1401.05 2246.04 1398.36 2247.26 1392.46C2246.04 1385.38 2241.98 1382.36 2234.59 1382.97H2221.92V1417.78Z" fill="white"></path>
  <path fill-rule="evenodd" clip-rule="evenodd" d="M2231.41 1398.79C2236.6 1397.49 2240.55 1397.17 2240.9 1392.49C2240.55 1387.6 2236.67 1386.81 2234.57 1386.16H2225.08V1398.8H2231.41V1398.79ZM2095.28 1129.69H2180.77L2158.61 1205.68H2073.14L2095.28 1129.69ZM1151.86 1284.81H1186.68L1189.86 1212.01L1151.86 1284.81ZM1883.17 1284.81H1845.18L1889.51 1186.68L1883.17 1284.81Z" fill="white"></path>
</svg>
