<?xml version="1.0" encoding="UTF-8"?>
<svg xmlns="http://www.w3.org/2000/svg" width="2500" height="2500" viewBox="0 0 2500 2500" fill="none">
  <path fill-rule="evenodd" clip-rule="evenodd" d="M717.15 1072.74C792.012 841.543 968.167 665.401 1263.22 665.401C1536.24 665.401 1738.82 845.953 1811.49 1077.15C1734.41 861.361 1518.63 705.036 1263.22 705.036C1009.99 705.036 796.409 859.169 717.15 1072.74ZM1809.28 1425.05C1736.6 1656.25 1527.45 1834.59 1263.2 1834.59C983.562 1834.59 794.204 1658.46 719.342 1429.46C798.614 1643.04 1012.2 1794.98 1263.2 1794.98C1516.43 1794.96 1732.23 1640.83 1809.28 1425.05Z" fill="white"></path>
  <path fill-rule="evenodd" clip-rule="evenodd" d="M1410.73 1061.74C1399.71 1066.15 1386.52 1061.74 1375.49 1070.55C1375.49 1068.35 1373.29 1063.95 1368.88 1066.15H1364.47C1375.49 1057.33 1357.88 1048.54 1375.49 1048.54C1388.72 1048.53 1399.72 1057.33 1410.73 1061.74ZM2463.24 1341.39V1284.14L2447.81 1297.35H2344.34V1145.41L2357.53 1127.8H2269.47L2282.68 1145.41V1325.95L2269.47 1341.39H2463.24ZM2108.73 1264.32H2038.28L2073.51 1189.44L2108.73 1264.32ZM2210.02 1341.39L2106.52 1127.8H2033.87L2042.69 1145.41L1945.79 1341.39H2025.05L2011.84 1325.96L2022.84 1303.95H2124.15L2135.15 1325.96L2119.74 1341.39H2210.02ZM1892.95 1279.73C1892.95 1244.5 1864.33 1226.88 1824.68 1213.67C1800.46 1204.87 1763.02 1200.46 1763.02 1182.86C1763.02 1174.05 1774.04 1169.64 1791.64 1169.64C1813.68 1169.64 1851.1 1178.45 1881.93 1191.66V1121.2L1864.33 1136.61C1846.73 1130 1815.9 1123.4 1793.85 1123.4C1721.19 1123.4 1699.18 1154.22 1699.18 1182.84C1699.18 1222.48 1723.4 1240.09 1765.22 1255.51C1796.05 1266.54 1824.68 1266.54 1824.68 1284.14C1824.68 1299.54 1807.08 1301.74 1798.26 1301.74C1776.25 1301.74 1734.39 1292.94 1699.18 1268.73V1347.99L1716.78 1330.36C1732.2 1336.98 1769.62 1347.99 1800.45 1347.99C1864.33 1348 1892.95 1319.38 1892.95 1279.73ZM1549.46 1198.26C1549.46 1213.67 1534.05 1224.68 1514.22 1224.68H1472.39V1171.83H1520.82C1536.23 1171.83 1549.46 1180.64 1549.46 1198.26ZM1622.1 1341.39L1564.85 1257.72C1593.48 1246.69 1613.31 1224.68 1613.31 1193.87C1613.31 1156.42 1591.27 1127.8 1529.64 1127.8H1397.5L1410.73 1145.41V1325.95L1397.5 1341.37H1485.58L1472.38 1325.95V1264.32H1498.8L1540.63 1325.95L1527.42 1341.37H1622.1V1341.39ZM1316.05 1341.39V1284.14L1300.65 1297.35H1190.55V1255.51H1261.01L1276.43 1268.73V1200.46L1261.01 1213.67H1190.55V1171.83H1300.65L1316.05 1187.25V1127.8H1115.68L1128.9 1145.41V1325.95L1115.68 1341.39H1316.05ZM1062.85 1127.8H985.766L998.983 1145.41L946.144 1262.11L893.292 1145.41L908.713 1127.8H818.431L917.52 1341.39H961.552L1062.85 1127.8ZM763.387 1341.39L750.171 1325.95V1145.41L763.387 1127.8H673.104L686.321 1145.41V1325.95L673.104 1341.39H763.387ZM589.436 1127.8H514.575L527.778 1145.41V1251.1L417.691 1127.8H351.636L364.839 1145.41V1325.95L351.636 1341.39H426.497L413.294 1325.95V1215.88L527.778 1341.39H576.22V1145.41L589.436 1127.8ZM278.966 1127.8H188.697L201.913 1145.41V1262.13C201.913 1288.55 184.3 1299.54 157.868 1299.54C131.448 1299.54 113.835 1288.55 113.835 1262.13V1145.41L127.051 1127.8H36.7559L49.972 1145.41V1264.32C49.972 1323.77 83.006 1345.78 157.868 1345.78C230.537 1345.78 263.558 1323.77 263.558 1264.32V1145.41L278.966 1127.8ZM1437.17 1068.35C1434.96 1070.55 1432.76 1072.74 1428.35 1072.74V1063.94C1430.55 1063.95 1432.76 1066.15 1437.17 1068.35ZM1661.75 1411.82C1657.34 1405.24 1661.75 1396.42 1661.75 1396.42H1340.27L1375.51 1427.24C1384.33 1431.65 1393.13 1438.27 1397.52 1451.46C1408.54 1480.08 1393.13 1455.87 1393.13 1499.89C1393.13 1539.54 1382.11 1532.92 1382.11 1532.92C1382.11 1532.92 1379.9 1579.15 1355.69 1607.77C1340.27 1623.19 1351.28 1636.4 1351.28 1636.4C1351.28 1636.4 1346.87 1640.81 1338.05 1673.84C1335.87 1684.86 1351.28 1702.46 1362.29 1698.05C1371.09 1693.67 1340.26 1691.47 1375.49 1676.04C1388.72 1671.63 1377.7 1660.64 1377.7 1660.64C1377.7 1660.64 1399.71 1658.43 1410.73 1625.4C1432.74 1629.81 1426.14 1616.58 1470.19 1605.59C1483.39 1603.39 1485.6 1598.98 1483.39 1587.97C1481.19 1576.97 1498.81 1590.17 1542.84 1543.93C1578.08 1508.7 1564.85 1499.89 1589.09 1486.69C1615.51 1473.46 1617.72 1488.89 1626.51 1477.87C1646.34 1451.45 1639.74 1453.65 1648.55 1436.04L1652.93 1427.22C1652.93 1427.26 1666.16 1416.23 1661.75 1411.82ZM1126.7 1039.72C1113.49 1022.11 1122.3 997.881 1135.52 973.666C1146.53 958.258 1172.95 949.452 1194.96 958.258C1221.38 938.441 1227.98 960.463 1250 949.452C1278.64 938.441 1263.22 984.678 1291.84 995.689C1302.86 964.86 1265.42 940.632 1289.64 925.224C1307.26 914.213 1320.46 907.611 1327.08 894.395C1338.08 874.577 1340.28 859.156 1349.09 856.951C1366.69 850.35 1362.32 832.737 1362.32 832.737C1362.32 832.737 1382.12 839.339 1397.53 823.93C1386.53 817.316 1368.91 812.919 1373.32 799.703C1379.93 786.487 1417.36 815.111 1430.56 790.896C1406.35 782.09 1382.14 760.067 1368.91 753.466C1357.91 764.477 1353.5 760.067 1340.28 751.274C1318.27 733.661 1318.27 749.069 1305.07 738.058C1294.04 760.067 1309.48 757.862 1313.86 762.272C1327.09 777.68 1300.66 749.056 1302.86 788.692C1302.86 797.498 1289.64 799.703 1278.65 777.68C1272.04 766.669 1227.99 768.874 1221.39 757.862C1227.99 746.851 1280.85 702.819 1362.32 713.83C1243.41 665.388 1082.66 716.035 1082.66 733.648C1065.05 744.659 1071.65 755.671 1062.85 757.862C1049.63 764.477 1034.22 806.305 1034.22 806.305C1034.22 806.305 1043.03 810.701 1016.61 841.531C994.586 865.758 987.984 903.176 987.984 903.176C987.984 903.176 1003.39 929.595 998.996 960.424C996.804 984.639 996.804 967.026 1007.82 982.447C1012.21 993.458 1018.83 1028.68 1023.22 1015.47C1029.82 989.049 1010.01 964.834 1012.21 938.402C1014.42 942.811 1021.02 929.595 1021.02 940.607C1021.02 973.628 1060.65 1033.08 1060.65 1033.08C1060.65 1033.08 1045.25 1048.49 1060.65 1048.49L1056.26 1057.3C1056.26 1057.3 1067.27 1057.3 1076.08 1063.91C1082.68 1070.51 1089.29 1077.13 1095.89 1077.13H1210.39C1210.39 1077.13 1219.2 1041.9 1225.8 1037.49C1232.41 1030.89 1212.59 1037.49 1205.99 1030.89C1199.38 1024.29 1197.17 1035.3 1192.78 1041.9C1190.59 1048.5 1186.18 1057.31 1177.37 1061.72C1168.55 1063.92 1148.74 1066.13 1144.33 1066.13C1139.93 1066.13 1126.7 1039.72 1126.7 1039.72ZM1276.43 1019.9C1278.64 1013.3 1289.64 1017.7 1298.44 1017.7C1307.25 1017.7 1305.06 1033.11 1318.25 1030.91C1333.67 1026.51 1333.67 1044.13 1353.49 1041.93C1373.29 1041.93 1349.08 1050.73 1349.08 1050.73C1349.08 1050.73 1335.87 1044.12 1329.27 1048.53C1324.86 1050.73 1329.27 1046.32 1322.66 1041.93C1311.63 1030.91 1313.84 1041.93 1296.24 1026.51C1283.02 1015.49 1269.82 1028.71 1276.43 1019.9Z" fill="white"></path>
</svg>
